<svg width="107" height="44" viewBox="0 0 107 44" fill="none" xmlns="http://www.w3.org/2000/svg">
<path d="M15.5854 9.22037L13.9792 13.1266C13.2258 14.9311 13.2258 16.8346 13.9198 18.5002H5.82964L15.5854 9.22037ZM21.8909 0L0 20.8202H20.7012L19.1347 20.2452C16.2397 19.1942 15.0103 16.676 16.1207 13.9991L21.8909 0Z" fill="#007F61"/>
<path d="M20.6612 25.4799L10.9054 34.7598L12.5116 30.8535C13.2651 29.0491 13.2651 27.1456 12.5711 25.4799H20.6612ZM26.4908 23.16H5.7698L7.33627 23.735C10.2313 24.7859 11.4606 27.3042 10.3502 29.9811L4.58008 44L26.4908 23.16Z" fill="#FF965A"/>
<path d="M38.2003 30.469C37.2056 30.469 36.4231 30.2991 35.8525 29.9592C35.2819 29.6194 34.927 29.0971 34.7877 28.3924C34.652 27.675 34.726 26.7499 35.0096 25.6172L38.1369 25.183C37.9634 25.8375 37.8716 26.3661 37.8615 26.7688C37.8644 27.1716 37.9389 27.461 38.085 27.6372C38.2442 27.8134 38.4677 27.9015 38.7556 27.9015C39.1221 27.9015 39.3917 27.782 39.5646 27.5428C39.7506 27.3037 39.8812 27.052 39.9566 26.7877C40.136 26.1584 40.1297 25.6298 39.9376 25.2019C39.7491 24.7614 39.4493 24.3209 39.0384 23.8804L37.9925 22.7289C37.5305 22.238 37.178 21.6843 36.935 21.0676C36.7087 20.4383 36.7266 19.6643 36.9885 18.7455C37.3581 17.4492 38.039 16.4613 39.0311 15.7817C40.0267 15.0894 41.2116 14.7433 42.5858 14.7433C43.4365 14.7433 44.0775 14.8818 44.509 15.1587C44.9535 15.4355 45.2421 15.8005 45.3746 16.2536C45.5238 16.6941 45.5725 17.1661 45.5206 17.6695C45.4853 18.1603 45.4097 18.6323 45.2936 19.0854L42.1682 19.444C42.2843 18.991 42.3628 18.6008 42.4037 18.2736C42.4614 17.9338 42.4433 17.6758 42.3496 17.4996C42.2595 17.3108 42.0639 17.2164 41.7629 17.2164C41.4357 17.2164 41.1559 17.3485 40.9235 17.6128C40.7042 17.8771 40.5569 18.1414 40.4815 18.4057C40.32 18.9721 40.3247 19.4377 40.4955 19.8027C40.6829 20.1551 40.95 20.5264 41.2968 20.9165L42.2945 22.0304C42.8266 22.5967 43.226 23.2386 43.4926 23.956C43.7723 24.6733 43.7614 25.5606 43.46 26.6178C43.2555 27.3352 42.8987 27.9896 42.3898 28.5811C41.8845 29.1601 41.2693 29.6194 40.5442 29.9592C39.8322 30.2991 39.0509 30.469 38.2003 30.469ZM45.9194 30.4312C45.3436 30.4312 44.8971 30.2991 44.5798 30.0348C44.2625 29.7705 44.0632 29.4369 43.9817 29.0342C43.9038 28.6189 43.9259 28.1973 44.0479 27.7694C44.2416 27.0897 44.5423 26.5171 44.9499 26.0514C45.3706 25.5858 45.8548 25.1956 46.4026 24.881C46.9503 24.5664 47.5296 24.3021 48.1402 24.0881C48.7545 23.8616 49.355 23.6602 49.9418 23.484L50.254 22.3891C50.3078 22.2003 50.3348 22.0367 50.335 21.8982C50.3388 21.7472 50.3057 21.6339 50.2356 21.5584C50.1691 21.4703 50.0443 21.4263 49.8611 21.4263C49.6778 21.4263 49.5231 21.464 49.3969 21.5395C49.2837 21.615 49.1878 21.722 49.1091 21.8605C49.0339 21.9863 48.9665 22.1311 48.9068 22.2947L48.6022 23.0876L45.6506 22.9743C46.0892 21.6654 46.7236 20.7026 47.5538 20.0859C48.4007 19.4566 49.485 19.142 50.8068 19.142C51.9585 19.142 52.7278 19.4503 53.1147 20.067C53.5183 20.6711 53.5819 21.4577 53.3056 22.4268L51.8523 27.5239C51.7231 27.977 51.6166 28.3735 51.5328 28.7133C51.4621 29.0531 51.404 29.3489 51.3584 29.6006C51.3259 29.8523 51.2976 30.0662 51.2735 30.2424H48.4075C48.4507 29.953 48.4946 29.6383 48.5392 29.2985C48.5837 28.9587 48.6019 28.7573 48.5936 28.6944C48.3336 29.1475 47.9701 29.5502 47.5032 29.9026C47.0493 30.255 46.5214 30.4312 45.9194 30.4312ZM47.6501 28.3546C47.781 28.3546 47.9059 28.3294 48.025 28.2791C48.1571 28.2287 48.2815 28.1595 48.3983 28.0714C48.515 27.9833 48.6186 27.8952 48.7092 27.8071L49.5596 24.8244C49.2548 24.9754 48.9679 25.1327 48.6987 25.2963C48.4332 25.4473 48.195 25.6172 47.9841 25.806C47.7733 25.9948 47.5897 26.2025 47.4335 26.429C47.294 26.643 47.1848 26.8884 47.1058 27.1653C47.0017 27.5302 46.9977 27.8197 47.0938 28.0337C47.1898 28.2476 47.3753 28.3546 47.6501 28.3546ZM53.118 30.2424L57.4779 14.951H60.6581L56.2982 30.2424H53.118ZM62.0239 30.4312C61.1994 30.4312 60.5322 30.2928 60.0222 30.0159C59.5158 29.7264 59.1827 29.3111 59.023 28.7699C58.8668 28.2162 58.8981 27.5554 59.117 26.7877L60.2581 22.7855C60.4806 22.0052 60.826 21.3445 61.2944 20.8033C61.7628 20.2621 62.3309 19.8531 62.9988 19.5762C63.6833 19.2867 64.4313 19.142 65.2427 19.142C66.0803 19.142 66.7344 19.2804 67.2051 19.5573C67.6889 19.8342 67.9911 20.2432 68.1116 20.7844C68.2452 21.3256 68.199 21.9926 67.9729 22.7855L67.3486 24.9754H62.7942L62.1968 27.0709C62.1178 27.3478 62.086 27.5743 62.1012 27.7505C62.1164 27.9267 62.1721 28.0525 62.2683 28.1281C62.3646 28.2036 62.4912 28.2413 62.6483 28.2413C62.8053 28.2413 62.9517 28.2099 63.0874 28.1469C63.2398 28.0714 63.3703 27.9581 63.4788 27.8071C63.6004 27.6561 63.6988 27.4484 63.7742 27.1841L64.1025 26.0326H67.0471L66.7457 27.0897C66.4299 28.1973 65.8576 29.0342 65.0287 29.6006C64.2033 30.1543 63.2017 30.4312 62.0239 30.4312ZM63.2033 23.5406H64.813L65.1252 22.4457C65.2078 22.1562 65.2331 21.9297 65.2012 21.7661C65.1824 21.6025 65.1166 21.4892 65.0036 21.4263C64.9038 21.3633 64.7688 21.3319 64.5987 21.3319C64.4416 21.3319 64.2935 21.3696 64.1541 21.4451C64.0279 21.5207 63.9052 21.6528 63.7859 21.8416C63.6702 22.0178 63.564 22.2758 63.4671 22.6156L63.2033 23.5406ZM67.7064 30.2424L72.3411 14.951H76.1102L75.3221 23.8427L79.7418 14.951H83.3735L79.2884 30.2424H76.7953L79.4021 20.067L74.6556 30.2424H72.4373L73.397 19.9915L70.2387 30.2424H67.7064ZM83.3787 30.4312C82.8028 30.4312 82.3563 30.2991 82.039 30.0348C81.7218 29.7705 81.5224 29.4369 81.4409 29.0342C81.363 28.6189 81.3851 28.1973 81.5071 27.7694C81.7009 27.0897 82.0016 26.5171 82.4092 26.0514C82.8299 25.5858 83.3141 25.1956 83.8618 24.881C84.4096 24.5664 84.9888 24.3021 85.5995 24.0881C86.2137 23.8616 86.8142 23.6602 87.401 23.484L87.7132 22.3891C87.7671 22.2003 87.7941 22.0367 87.7943 21.8982C87.7981 21.7472 87.7649 21.6339 87.6949 21.5584C87.6284 21.4703 87.5035 21.4263 87.3203 21.4263C87.1371 21.4263 86.9824 21.464 86.8561 21.5395C86.743 21.615 86.6471 21.722 86.5683 21.8605C86.4932 21.9863 86.4257 22.1311 86.366 22.2947L86.0614 23.0876L83.1099 22.9743C83.5485 21.6654 84.1829 20.7026 85.0131 20.0859C85.8599 19.4566 86.9443 19.142 88.2661 19.142C89.4177 19.142 90.187 19.4503 90.5739 20.067C90.9775 20.6711 91.0412 21.4577 90.7649 22.4268L89.3116 27.5239C89.1824 27.977 89.0759 28.3735 88.9921 28.7133C88.9214 29.0531 88.8632 29.3489 88.8176 29.6006C88.7851 29.8523 88.7568 30.0662 88.7328 30.2424H85.8667C85.91 29.953 85.9539 29.6383 85.9984 29.2985C86.043 28.9587 86.0611 28.7573 86.0529 28.6944C85.7928 29.1475 85.4293 29.5502 84.9624 29.9026C84.5086 30.255 83.9807 30.4312 83.3787 30.4312ZM85.1093 28.3546C85.2402 28.3546 85.3652 28.3294 85.4842 28.2791C85.6164 28.2287 85.7408 28.1595 85.8575 28.0714C85.9742 27.9833 86.0779 27.8952 86.1684 27.8071L87.0189 24.8244C86.7141 24.9754 86.4271 25.1327 86.158 25.2963C85.8924 25.4473 85.6542 25.6172 85.4434 25.806C85.2325 25.9948 85.049 26.2025 84.8928 26.429C84.7532 26.643 84.644 26.8884 84.5651 27.1653C84.461 27.5302 84.457 27.8197 84.553 28.0337C84.6491 28.2476 84.8345 28.3546 85.1093 28.3546ZM93.0735 34.0181C92.2229 34.0181 91.5002 33.9363 90.9056 33.7727C90.3241 33.6091 89.9033 33.3636 89.6432 33.0364C89.3963 32.7092 89.3428 32.3002 89.4827 31.8093C89.5904 31.4318 89.7723 31.0919 90.0286 30.7899C90.2943 30.5004 90.6147 30.2487 90.9898 30.0348C91.378 29.8208 91.7965 29.6383 92.2453 29.4873L93.4228 29.695C93.2465 29.8082 93.075 29.9278 92.9083 30.0536C92.7582 30.1669 92.6259 30.2865 92.5115 30.4123C92.3935 30.5508 92.3094 30.7081 92.2592 30.8843C92.1802 31.1612 92.2846 31.3688 92.5723 31.5073C92.86 31.6457 93.3834 31.7149 94.1425 31.7149C94.7706 31.7149 95.271 31.6583 95.6436 31.545C96.0256 31.4443 96.2615 31.2367 96.3512 30.922C96.4015 30.7458 96.3951 30.6074 96.3322 30.5067C96.2693 30.406 96.1421 30.3242 95.9507 30.2613C95.7592 30.1984 95.4857 30.148 95.13 30.1103L92.4001 29.7705C91.8196 29.695 91.4011 29.4873 91.1447 29.1475C90.8882 28.8077 90.8317 28.3861 90.9753 27.8826C91.1009 27.4421 91.3549 27.0331 91.7374 26.6555C92.133 26.278 92.6118 25.9067 93.1739 25.5417L94.1206 26.1458C93.9205 26.2969 93.7549 26.4416 93.6238 26.58C93.4963 26.7059 93.4093 26.8506 93.3626 27.0142C93.3196 27.1653 93.364 27.2848 93.4959 27.3729C93.6278 27.461 93.8895 27.5302 94.2808 27.5806L96.8733 27.9204C97.8095 28.0337 98.4283 28.342 98.7297 28.8454C99.0442 29.3489 99.0884 29.997 98.8624 30.7899C98.6614 31.4947 98.3292 32.0862 97.8656 32.5645C97.4152 33.0427 96.796 33.4014 96.008 33.6405C95.2295 33.8922 94.2514 34.0181 93.0735 34.0181ZM95.3529 26.7122C94.463 26.7122 93.7535 26.5612 93.2246 26.2591C92.7087 25.9571 92.3726 25.5291 92.2164 24.9754C92.0769 24.409 92.1202 23.7294 92.3462 22.9365C92.5795 22.1185 92.9339 21.4263 93.4095 20.8599C93.885 20.2936 94.4651 19.8657 95.1496 19.5762C95.8473 19.2867 96.6345 19.142 97.5113 19.142C98.3489 19.142 99.0125 19.293 99.5022 19.5951C99.992 19.8971 100.307 20.3313 100.446 20.8977C100.602 21.4514 100.566 22.1311 100.336 22.9365C100.11 23.7294 99.7656 24.409 99.3031 24.9754C98.8573 25.5291 98.3034 25.9571 97.6415 26.2591C96.9795 26.5612 96.2167 26.7122 95.3529 26.7122ZM95.875 24.881C96.0582 24.881 96.2112 24.8495 96.3338 24.7866C96.4731 24.7111 96.5905 24.5978 96.6859 24.4468C96.7944 24.2958 96.8976 24.0944 96.9955 23.8427C97.0935 23.591 97.1927 23.2889 97.2932 22.9365C97.3972 22.5715 97.4703 22.2695 97.5123 22.0304C97.5579 21.7787 97.5695 21.5773 97.5471 21.4263C97.5414 21.2626 97.4886 21.1494 97.3888 21.0865C97.3056 21.0109 97.1724 20.9732 96.9892 20.9732C96.8191 20.9732 96.6644 21.0109 96.525 21.0865C96.3893 21.1494 96.2672 21.2564 96.1587 21.4074C96.0502 21.5584 95.947 21.7598 95.849 22.0115C95.7511 22.2632 95.6501 22.5715 95.546 22.9365C95.4456 23.2889 95.3725 23.591 95.3269 23.8427C95.2849 24.0818 95.2668 24.2832 95.2725 24.4468C95.2949 24.5978 95.3542 24.7111 95.4504 24.7866C95.5503 24.8495 95.6918 24.881 95.875 24.881ZM100.187 21.0487L99.7565 20.2181C100.057 19.8531 100.382 19.5636 100.73 19.3496C101.096 19.1231 101.56 18.8966 102.122 18.67L102.467 20.1425C102.326 20.1803 102.108 20.2558 101.814 20.3691C101.537 20.4698 101.243 20.583 100.932 20.7089C100.634 20.8347 100.386 20.948 100.187 21.0487Z" fill="white"/>
</svg>
