<svg width="116" height="48" viewBox="0 0 116 48" fill="none" xmlns="http://www.w3.org/2000/svg">
<path d="M16.974 10.0418L15.2247 14.2961C14.4041 16.2613 14.4041 18.3344 15.16 20.1484H6.34904L16.974 10.0418ZM23.8413 0L0 22.6751H22.5456L20.8395 22.0488C17.6866 20.9043 16.3477 18.1617 17.557 15.2463L23.8413 0Z" fill="#007F61"/>
<path d="M22.5024 27.7503L11.8774 37.8569L13.6267 33.6026C14.4473 31.6374 14.4473 29.5643 13.6915 27.7503H22.5024ZM28.8514 25.2236H6.28425L7.99028 25.8499C11.1432 26.9945 12.4821 29.7371 11.2728 32.6524L4.98853 47.9203L28.8514 25.2236Z" fill="#FF965A"/>
<path d="M41.3429 34.0979C40.2596 34.0979 39.4073 33.9129 38.7859 33.5428C38.1645 33.1727 37.778 32.6039 37.6263 31.8363C37.4784 31.055 37.559 30.0476 37.868 28.8139L41.2739 28.3411C41.0849 29.0538 40.9849 29.6295 40.9739 30.0681C40.9771 30.5067 41.0583 30.822 41.2173 31.0139C41.3907 31.2058 41.6341 31.3017 41.9477 31.3017C42.3468 31.3017 42.6405 31.1715 42.8287 30.9111C43.0313 30.6507 43.1736 30.3765 43.2556 30.0887C43.451 29.4033 43.4441 28.8276 43.2349 28.3616C43.0297 27.8819 42.7032 27.4021 42.2556 26.9224L41.1166 25.6682C40.6134 25.1337 40.2295 24.5306 39.9649 23.8589C39.7185 23.1736 39.7379 22.3306 40.0232 21.33C40.4257 19.9182 41.1672 18.8422 42.2477 18.1021C43.3321 17.3482 44.6226 16.9713 46.1191 16.9713C47.0456 16.9713 47.7437 17.122 48.2136 17.4236C48.6978 17.7251 49.012 18.1226 49.1564 18.6161C49.3189 19.0958 49.3719 19.6098 49.3154 20.1581C49.277 20.6927 49.1946 21.2067 49.0681 21.7001L45.6643 22.0907C45.7907 21.5973 45.8763 21.1724 45.9208 20.816C45.9836 20.4459 45.964 20.1649 45.8619 19.973C45.7637 19.7674 45.5507 19.6646 45.2229 19.6646C44.8666 19.6646 44.5619 19.8086 44.3088 20.0964C44.0699 20.3843 43.9094 20.6721 43.8274 20.9599C43.6515 21.5767 43.6566 22.0839 43.8425 22.4814C44.0467 22.8652 44.3376 23.2695 44.7153 23.6944L45.8019 24.9075C46.3814 25.5243 46.8164 26.2234 47.1067 27.0046C47.4113 27.7859 47.3995 28.7523 47.0712 29.9036C46.8484 30.6849 46.4599 31.3977 45.9057 32.0419C45.3553 32.6724 44.6853 33.1727 43.8956 33.5428C43.1202 33.9129 42.2693 34.0979 41.3429 34.0979ZM49.7497 34.0568C49.1226 34.0568 48.6363 33.9129 48.2908 33.625C47.9452 33.3372 47.7281 32.974 47.6394 32.5353C47.5545 32.083 47.5786 31.6238 47.7114 31.1578C47.9225 30.4176 48.25 29.794 48.6939 29.2868C49.152 28.7797 49.6794 28.3548 50.276 28.0121C50.8725 27.6694 51.5033 27.3816 52.1684 27.1486C52.8374 26.9018 53.4914 26.6825 54.1305 26.4906L54.4705 25.2981C54.5291 25.0925 54.5585 24.9144 54.5588 24.7636C54.5629 24.5991 54.5268 24.4757 54.4505 24.3935C54.3781 24.2975 54.2421 24.2496 54.0426 24.2496C53.843 24.2496 53.6745 24.2907 53.537 24.3729C53.4138 24.4552 53.3093 24.5717 53.2236 24.7225C53.1417 24.8595 53.0683 25.0172 53.0032 25.1953L52.6715 26.0589L49.457 25.9355C49.9347 24.51 50.6256 23.4614 51.5298 22.7898C52.4521 22.1045 53.633 21.7618 55.0726 21.7618C56.3268 21.7618 57.1647 22.0976 57.5861 22.7692C58.0256 23.4272 58.0949 24.2838 57.794 25.3393L56.2112 30.8905C56.0705 31.384 55.9545 31.8157 55.8633 32.1858C55.7863 32.5559 55.7229 32.878 55.6733 33.1521C55.6379 33.4263 55.6071 33.6593 55.5809 33.8512H52.4594C52.5066 33.5359 52.5544 33.1933 52.6029 32.8232C52.6514 32.4531 52.6712 32.2338 52.6622 32.1653C52.379 32.6587 51.9831 33.0973 51.4746 33.4811C50.9803 33.8649 50.4054 34.0568 49.7497 34.0568ZM51.6346 31.7952C51.7771 31.7952 51.9132 31.7678 52.0429 31.7129C52.1868 31.6581 52.3223 31.5827 52.4494 31.4868C52.5766 31.3908 52.6894 31.2949 52.7881 31.1989L53.7143 27.9504C53.3823 28.1149 53.0698 28.2862 52.7767 28.4644C52.4875 28.6289 52.2281 28.8139 51.9984 29.0195C51.7687 29.2251 51.5689 29.4513 51.3987 29.698C51.2468 29.931 51.1278 30.1983 51.0418 30.4999C50.9285 30.8974 50.9241 31.2126 51.0287 31.4456C51.1333 31.6787 51.3353 31.7952 51.6346 31.7952ZM57.5897 33.8512L62.3381 17.1974H65.8015L61.0532 33.8512H57.5897ZM67.289 34.0568C66.3911 34.0568 65.6644 33.906 65.109 33.6045C64.5575 33.2892 64.1947 32.8369 64.0207 32.2475C63.8506 31.6444 63.8847 30.9248 64.1231 30.0887L65.3659 25.7299C65.6082 24.8801 65.9844 24.1605 66.4945 23.5711C67.0047 22.9817 67.6234 22.5362 68.3508 22.2347C69.0963 21.9194 69.9109 21.7618 70.7946 21.7618C71.7068 21.7618 72.4192 21.9126 72.9319 22.2141C73.4588 22.5157 73.7879 22.9611 73.9191 23.5505C74.0646 24.1399 74.0143 24.8664 73.7681 25.7299L73.0881 28.1149H68.128L67.4773 30.3971C67.3913 30.6986 67.3566 30.9453 67.3732 31.1372C67.3897 31.3291 67.4504 31.4662 67.5553 31.5484C67.6601 31.6307 67.798 31.6718 67.969 31.6718C68.1401 31.6718 68.2995 31.6375 68.4473 31.569C68.6133 31.4868 68.7554 31.3634 68.8735 31.1989C69.006 31.0344 69.1132 30.8083 69.1953 30.5204L69.5529 29.2663H72.7598L72.4315 30.4176C72.0876 31.6238 71.4643 32.5353 70.5615 33.1521C69.6626 33.7552 68.5718 34.0568 67.289 34.0568ZM68.5735 26.5523H70.3267L70.6667 25.3598C70.7566 25.0446 70.7841 24.7978 70.7494 24.6197C70.729 24.4415 70.6572 24.3181 70.5343 24.2496C70.4255 24.181 70.2785 24.1468 70.0932 24.1468C69.9222 24.1468 69.7608 24.1879 69.6091 24.2701C69.4716 24.3524 69.3379 24.4963 69.208 24.7019C69.0821 24.8938 68.9663 25.1748 68.8608 25.5449L68.5735 26.5523ZM73.4778 33.8512L78.5254 17.1974H82.6303L81.772 26.8813L86.5855 17.1974H90.5408L86.0917 33.8512H83.3765L86.2155 22.7692L81.0461 33.8512H78.6302L79.6754 22.687L76.2357 33.8512H73.4778ZM90.5464 34.0568C89.9192 34.0568 89.4329 33.9129 89.0874 33.625C88.7419 33.3372 88.5247 32.974 88.436 32.5353C88.3512 32.083 88.3752 31.6238 88.5081 31.1578C88.7191 30.4176 89.0466 29.794 89.4905 29.2868C89.9487 28.7797 90.476 28.3548 91.0726 28.0121C91.6691 27.6694 92.3 27.3816 92.965 27.1486C93.634 26.9018 94.288 26.6825 94.9271 26.4906L95.2671 25.2981C95.3257 25.0925 95.3552 24.9144 95.3554 24.7636C95.3595 24.5991 95.3234 24.4757 95.2471 24.3935C95.1747 24.2975 95.0387 24.2496 94.8392 24.2496C94.6396 24.2496 94.4711 24.2907 94.3337 24.3729C94.2104 24.4552 94.106 24.5717 94.0202 24.7225C93.9384 24.8595 93.8649 25.0172 93.7999 25.1953L93.4681 26.0589L90.2536 25.9355C90.7313 24.51 91.4222 23.4614 92.3264 22.7898C93.2487 22.1045 94.4296 21.7618 95.8692 21.7618C97.1235 21.7618 97.9613 22.0976 98.3827 22.7692C98.8222 23.4272 98.8915 24.2838 98.5906 25.3393L97.0078 30.8905C96.8671 31.384 96.7512 31.8157 96.6599 32.1858C96.5829 32.5559 96.5196 32.878 96.4699 33.1521C96.4345 33.4263 96.4037 33.6593 96.3775 33.8512H93.2561C93.3032 33.5359 93.351 33.1933 93.3995 32.8232C93.448 32.4531 93.4678 32.2338 93.4588 32.1653C93.1756 32.6587 92.7797 33.0973 92.2712 33.4811C91.777 33.8649 91.202 34.0568 90.5464 34.0568ZM92.4312 31.7952C92.5738 31.7952 92.7098 31.7678 92.8395 31.7129C92.9834 31.6581 93.1189 31.5827 93.2461 31.4868C93.3732 31.3908 93.4861 31.2949 93.5847 31.1989L94.5109 27.9504C94.1789 28.1149 93.8664 28.2862 93.5733 28.4644C93.2841 28.6289 93.0247 28.8139 92.795 29.0195C92.5654 29.2251 92.3655 29.4513 92.1954 29.698C92.0434 29.931 91.9244 30.1983 91.8385 30.4999C91.7251 30.8974 91.7208 31.2126 91.8254 31.4456C91.93 31.6787 92.1319 31.7952 92.4312 31.7952ZM101.105 37.9632C100.179 37.9632 99.3915 37.8741 98.7439 37.696C98.1106 37.5178 97.6523 37.2505 97.3691 36.8941C97.1001 36.5377 97.0418 36.0923 97.1942 35.5577C97.3115 35.1465 97.5097 34.7764 97.7887 34.4474C98.0782 34.1322 98.4271 33.858 98.8356 33.625C99.2584 33.392 99.7142 33.1933 100.203 33.0288L101.485 33.2549C101.293 33.3783 101.107 33.5085 100.925 33.6456C100.762 33.769 100.618 33.8992 100.493 34.0362C100.364 34.187 100.273 34.3583 100.218 34.5502C100.132 34.8518 100.246 35.078 100.559 35.2287C100.872 35.3795 101.442 35.4549 102.269 35.4549C102.953 35.4549 103.498 35.3932 103.904 35.2698C104.32 35.1602 104.577 34.934 104.675 34.5914C104.729 34.3995 104.723 34.2487 104.654 34.139C104.585 34.0294 104.447 33.9403 104.238 33.8718C104.03 33.8032 103.732 33.7484 103.345 33.7073L100.372 33.3372C99.7393 33.2549 99.2836 33.0288 99.0043 32.6587C98.725 32.2886 98.6635 31.8294 98.8198 31.2812C98.9566 30.8014 99.2332 30.356 99.6498 29.9448C100.081 29.5335 100.602 29.1292 101.214 28.7317L102.245 29.3896C102.027 29.5541 101.847 29.7117 101.704 29.8625C101.565 29.9996 101.471 30.1572 101.42 30.3354C101.373 30.4999 101.421 30.6301 101.565 30.726C101.709 30.822 101.994 30.8974 102.42 30.9522L105.243 31.3223C106.263 31.4456 106.937 31.7815 107.265 32.3297C107.608 32.878 107.656 33.5839 107.41 34.4474C107.191 35.215 106.829 35.8592 106.324 36.3801C105.833 36.901 105.159 37.2916 104.301 37.552C103.453 37.8262 102.388 37.9632 101.105 37.9632ZM103.587 30.0064C102.618 30.0064 101.846 29.842 101.269 29.513C100.708 29.184 100.342 28.718 100.172 28.1149C100.02 27.4981 100.067 26.7579 100.313 25.8944C100.567 25.0034 100.953 24.2496 101.471 23.6328C101.989 23.016 102.621 22.5499 103.366 22.2347C104.126 21.9194 104.983 21.7618 105.938 21.7618C106.85 21.7618 107.573 21.9263 108.106 22.2552C108.64 22.5842 108.982 23.0571 109.134 23.6739C109.305 24.277 109.265 25.0172 109.014 25.8944C108.768 26.7579 108.393 27.4981 107.89 28.1149C107.404 28.718 106.801 29.184 106.08 29.513C105.359 29.842 104.528 30.0064 103.587 30.0064ZM104.156 28.0121C104.356 28.0121 104.522 27.9778 104.656 27.9093C104.807 27.827 104.935 27.7037 105.039 27.5392C105.157 27.3747 105.27 27.1554 105.376 26.8813C105.483 26.6071 105.591 26.2782 105.701 25.8944C105.814 25.4969 105.893 25.1679 105.939 24.9075C105.989 24.6334 106.001 24.4141 105.977 24.2496C105.971 24.0714 105.913 23.948 105.805 23.8795C105.714 23.7972 105.569 23.7561 105.37 23.7561C105.184 23.7561 105.016 23.7972 104.864 23.8795C104.716 23.948 104.583 24.0645 104.465 24.229C104.347 24.3935 104.234 24.6128 104.128 24.8869C104.021 25.1611 103.911 25.4969 103.798 25.8944C103.688 26.2782 103.609 26.6071 103.559 26.8813C103.513 27.1417 103.494 27.361 103.5 27.5392C103.524 27.7037 103.589 27.827 103.694 27.9093C103.802 27.9778 103.957 28.0121 104.156 28.0121ZM108.852 23.8384L108.383 22.9337C108.71 22.5362 109.064 22.221 109.444 21.9879C109.842 21.7412 110.347 21.4945 110.959 21.2478L111.336 22.8515C111.182 22.8926 110.944 22.9748 110.624 23.0982C110.322 23.2079 110.002 23.3312 109.663 23.4683C109.339 23.6054 109.069 23.7287 108.852 23.8384Z" fill="#007F61"/>
</svg>
