<?xml version="1.0" encoding="utf-8"?>
<!-- Generator: Adobe Illustrator 28.0.0, SVG Export Plug-In . SVG Version: 6.00 Build 0)  -->
<svg version="1.1" id="Layer_1" xmlns="http://www.w3.org/2000/svg" xmlns:xlink="http://www.w3.org/1999/xlink" x="0px" y="0px"
	 viewBox="0 0 75 18" style="enable-background:new 0 0 75 18;" xml:space="preserve">
<g>
	<path d="M49,7.7H31.1c-0.8,0-1.3-0.5-1.3-1.3s0.5-1.3,1.3-1.3h14.8L43,2.3c-0.5-0.5-0.5-1.3,0-1.8c0.5-0.5,1.3-0.5,1.8,0l5.1,5.1
		c0.4,0.4,0.5,0.9,0.3,1.4C50,7.5,49.5,7.7,49,7.7L49,7.7z"/>
	<path d="M31.1,17.9c-0.4,0-0.6-0.1-0.9-0.4l-5.1-5.1c-0.4-0.4-0.5-0.9-0.3-1.4c0.3-0.5,0.6-0.8,1.1-0.8h17.8c0.8,0,1.3,0.5,1.3,1.3
		c0,0.8-0.5,1.3-1.3,1.3H29.1l2.9,2.9c0.5,0.5,0.5,1.3,0,1.8C31.8,17.8,31.5,17.9,31.1,17.9L31.1,17.9z"/>
</g>
</svg>
