<?xml version="1.0" encoding="utf-8"?>
<!-- Generator: Adobe Illustrator 28.0.0, SVG Export Plug-In . SVG Version: 6.00 Build 0)  -->
<svg version="1.1" id="katman_1" xmlns="http://www.w3.org/2000/svg" xmlns:xlink="http://www.w3.org/1999/xlink" x="0px" y="0px"
	 viewBox="0 0 75 18" style="enable-background:new 0 0 75 18;" xml:space="preserve">
<style type="text/css">
	.st0{clip-path:url(#SVGID_00000150104556513298081170000012381755153558677685_);}
	.st1{fill:#FDDD36;}
</style>
<g>
	<g>
		<defs>
			<rect id="SVGID_1_" x="9.7" y="0.8" width="55.9" height="17.2"/>
		</defs>
		<clipPath id="SVGID_00000029751334012412531920000017089073982583284911_">
			<use xlink:href="#SVGID_1_"  style="overflow:visible;"/>
		</clipPath>
		<g style="clip-path:url(#SVGID_00000029751334012412531920000017089073982583284911_);">
			<path class="st1" d="M9.7,9.6V9.2c0.6,0,1.1-0.2,1.5-0.6c0.4-0.4,0.6-0.9,0.6-1.5h0.4c0,0.6,0.2,1.1,0.6,1.5
				c0.4,0.4,1,0.6,1.5,0.6v0.5c-0.6,0-1.1,0.2-1.5,0.6c-0.4,0.4-0.6,0.9-0.6,1.5h-0.4c0-0.6-0.2-1.1-0.6-1.5
				C10.8,9.9,10.3,9.6,9.7,9.6z M11.9,6.2h3.7c1.8,0,3.1,1.3,3.1,3.2s-1.3,3.2-3.1,3.2h-3.7V18h1.6v-4h2.2c2.6,0,4.7-2,4.7-4.6
				c0-2.5-2.1-4.6-4.7-4.6h-3.7C11.9,4.8,11.9,6.2,11.9,6.2z M25.9,4.8c1.4,0,2.6,0.7,3.3,1.8V5.1h1.6v8.6h-1.6v-1.5
				c-0.8,1.1-2,1.8-3.3,1.8c-2.6,0-4.7-2-4.7-4.6S23.3,4.8,25.9,4.8z M25.9,12.6c2,0,3.3-1.4,3.3-3.2c0-1.8-1.3-3.2-3.3-3.2
				c-1.8,0-3.2,1.3-3.2,3.2C22.7,11.3,24.1,12.6,25.9,12.6z M36.5,4.8c1.4,0,2.6,0.7,3.3,1.8V0.8h1.6v12.9h-1.6v-1.5
				c-0.8,1.1-2,1.8-3.3,1.8c-2.6,0-4.7-2-4.7-4.6C31.8,6.8,34,4.8,36.5,4.8z M36.5,12.6c2,0,3.3-1.4,3.3-3.2s-1.3-3.2-3.3-3.2
				c-1.8,0-3.2,1.3-3.2,3.2S34.7,12.6,36.5,12.6z M47.4,4.8c1.4,0,2.6,0.7,3.3,1.8V0.8h1.6v12.9h-1.6v-1.5c-0.8,1.1-2,1.8-3.3,1.8
				c-2.6,0-4.7-2-4.7-4.6C42.7,6.8,44.8,4.8,47.4,4.8z M47.4,12.6c2,0,3.3-1.4,3.3-3.2s-1.3-3.2-3.3-3.2c-1.8,0-3.2,1.3-3.2,3.2
				S45.6,12.6,47.4,12.6z M53.8,13.7V0.8h1.6v12.9H53.8z M61.2,4.8c3,0,4.4,2.3,4.4,5.2h-7.5c0.2,1.7,1.5,2.7,3,2.7
				c1.1,0,1.9-0.5,2.5-1.4h1.7c-0.6,1.3-2.1,2.6-4.2,2.6c-2.6,0-4.6-2.1-4.6-4.6C56.5,6.9,58.5,4.8,61.2,4.8L61.2,4.8z M64,8.8
				C64,7.4,62.8,6,61.2,6c-1.6,0-2.8,1.1-3,2.7H64z"/>
		</g>
	</g>
</g>
</svg>
