<svg width="12" height="12" viewBox="0 0 12 12" fill="none" xmlns="http://www.w3.org/2000/svg">
<path d="M11.5 5.5C11.776 5.5 12 5.2765 12 5C12 4.7235 11.776 4.5 11.5 4.5H11V3.5H11.5C11.776 3.5 12 3.2765 12 3C12 2.7235 11.776 2.5 11.5 2.5H10.791C10.5385 1.9245 10.0755 1.4615 9.5 1.209V0.5C9.5 0.2235 9.276 0 9 0C8.724 0 8.5 0.2235 8.5 0.5V1H7.5V0.5C7.5 0.2235 7.276 0 7 0C6.724 0 6.5 0.2235 6.5 0.5V1H5.5V0.5C5.5 0.2235 5.276 0 5 0C4.724 0 4.5 0.2235 4.5 0.5V1H3.5V0.5C3.5 0.2235 3.276 0 3 0C2.724 0 2.5 0.2235 2.5 0.5V1.209C1.9245 1.4615 1.4615 1.9245 1.209 2.5H0.5C0.224 2.5 0 2.7235 0 3C0 3.2765 0.224 3.5 0.5 3.5H1V4.5H0.5C0.224 4.5 0 4.7235 0 5C0 5.2765 0.224 5.5 0.5 5.5H1V6.5H0.5C0.224 6.5 0 6.7235 0 7C0 7.2765 0.224 7.5 0.5 7.5H1V8.5H0.5C0.224 8.5 0 8.7235 0 9C0 9.2765 0.224 9.5 0.5 9.5H1.209C1.4615 10.0755 1.9245 10.5385 2.5 10.791V11.5C2.5 11.7765 2.724 12 3 12C3.276 12 3.5 11.7765 3.5 11.5V11H4.5V11.5C4.5 11.7765 4.724 12 5 12C5.276 12 5.5 11.7765 5.5 11.5V11H6.5V11.5C6.5 11.7765 6.724 12 7 12C7.276 12 7.5 11.7765 7.5 11.5V11H8.5V11.5C8.5 11.7765 8.724 12 9 12C9.276 12 9.5 11.7765 9.5 11.5V10.791C10.0755 10.5385 10.5385 10.0755 10.791 9.5H11.5C11.776 9.5 12 9.2765 12 9C12 8.7235 11.776 8.5 11.5 8.5H11V7.5H11.5C11.776 7.5 12 7.2765 12 7C12 6.7235 11.776 6.5 11.5 6.5H11V5.5H11.5ZM8.5 10H3.5C2.673 10 2 9.327 2 8.5V3.5C2 2.673 2.673 2 3.5 2H8.5C9.327 2 10 2.673 10 3.5V8.5C10 9.327 9.327 10 8.5 10ZM8.5 3.5V8.5C8.5 8.7765 8.276 9 8 9C7.724 9 7.5 8.7765 7.5 8.5V3.5C7.5 3.2235 7.724 3 8 3C8.276 3 8.5 3.2235 8.5 3.5ZM5.7825 3.651C5.6915 3.2625 5.377 3.0015 5 3.0015C4.623 3.0015 4.3085 3.262 4.2195 3.6415L3.015 8.377C2.947 8.6445 3.109 8.9165 3.3765 8.9845C3.6465 9.0555 3.9165 8.891 3.9845 8.623L4.143 8H5.857L6.0155 8.623C6.073 8.8495 6.2765 9 6.5 9C6.541 9 6.582 8.995 6.6235 8.9845C6.891 8.9165 7.053 8.6445 6.985 8.377L5.783 3.651H5.7825ZM4.3975 7L5 4.6305L5.6025 7H4.397H4.3975Z" fill="#007F61"/>
</svg>
