<svg width="20" height="20" viewBox="0 0 20 20" fill="none" xmlns="http://www.w3.org/2000/svg">
<path d="M11.25 14.5833C11.25 15.2733 10.69 15.8333 10 15.8333C9.31 15.8333 8.75 15.2733 8.75 14.5833C8.75 13.8933 9.31 13.3333 10 13.3333C10.69 13.3333 11.25 13.8933 11.25 14.5833ZM10 12.0833C10.4608 12.0833 10.8333 11.7108 10.8333 11.25V5C10.8333 4.53917 10.4608 4.16667 10 4.16667C9.53917 4.16667 9.16667 4.53917 9.16667 5V11.25C9.16667 11.7108 9.53917 12.0833 10 12.0833ZM20 4.16667V15.8333C20 18.1308 18.1308 20 15.8333 20H4.16667C1.86917 20 0 18.1308 0 15.8333V4.16667C0 1.86917 1.86917 0 4.16667 0H15.8333C18.1308 0 20 1.86917 20 4.16667ZM18.3333 4.16667C18.3333 2.78833 17.2117 1.66667 15.8333 1.66667H4.16667C2.78833 1.66667 1.66667 2.78833 1.66667 4.16667V15.8333C1.66667 17.2117 2.78833 18.3333 4.16667 18.3333H15.8333C17.2117 18.3333 18.3333 17.2117 18.3333 15.8333V4.16667Z" fill="#141F39"/>
</svg>
