<svg width="12" height="12" viewBox="0 0 12 12" fill="none" xmlns="http://www.w3.org/2000/svg">
<g clip-path="url(#clip0_2011_352)">
<path d="M2.5 3C2.5 2.7235 2.724 2.5 3 2.5H4.5C4.776 2.5 5 2.7235 5 3C5 3.2765 4.776 3.5 4.5 3.5H3C2.724 3.5 2.5 3.2765 2.5 3ZM5.5 4.5H3C2.724 4.5 2.5 4.7235 2.5 5C2.5 5.2765 2.724 5.5 3 5.5H5.5C5.776 5.5 6 5.2765 6 5C6 4.7235 5.776 4.5 5.5 4.5ZM5.5 6.5H3C2.724 6.5 2.5 6.7235 2.5 7C2.5 7.2765 2.724 7.5 3 7.5H5.5C5.776 7.5 6 7.2765 6 7C6 6.7235 5.776 6.5 5.5 6.5ZM11.9695 2.3285C11.8975 2.131 11.7095 2 11.5 2H9.9995L9.4685 0.51C9.3955 0.3145 9.2085 0.1845 9 0.1845C8.7915 0.1845 8.604 0.3145 8.5315 0.51L8.0005 2H6.5C6.2905 2 6.103 2.131 6.031 2.3275C5.9585 2.5245 6.017 2.745 6.177 2.881L7.3655 3.8485L6.895 5.3565C6.8315 5.559 6.9025 5.7795 7.072 5.907C7.1605 5.9735 7.266 6.007 7.372 6.007C7.469 6.007 7.566 5.979 7.65 5.9225L9.004 5.0165L10.381 5.913C10.5585 6.0285 10.7905 6.0195 10.959 5.89C11.1275 5.7605 11.1955 5.5385 11.1285 5.337L10.639 3.847L11.822 2.8835C11.9825 2.748 12.0415 2.527 11.9695 2.3295V2.3285ZM11 10V10.25C11 11.215 10.215 12 9.25 12H1.7495C0.785 12 0 11.215 0 10.25V2.5C0 1.1215 1.1215 0 2.5 0H6.5C6.776 0 7 0.2235 7 0.5C7 0.7765 6.776 1 6.5 1H2.5C1.673 1 1 1.673 1 2.5V10.25C1 10.6635 1.3365 11 1.75 11C2.1635 11 2.5 10.6635 2.5 10.25V10C2.5 9.173 3.173 8.5 4 8.5H8.5V7C8.5 6.7235 8.724 6.5 9 6.5C9.276 6.5 9.5 6.7235 9.5 7V8.5C10.327 8.5 11 9.173 11 10ZM10 10C10 9.724 9.7755 9.5 9.5 9.5H4C3.7245 9.5 3.5 9.724 3.5 10V10.25C3.5 10.518 3.439 10.7725 3.331 11H9.25C9.6635 11 10 10.6635 10 10.25V10Z" fill="#007F61"/>
</g>
<defs>
<clipPath id="clip0_2011_352">
<rect width="12" height="12" fill="white"/>
</clipPath>
</defs>
</svg>
