<svg width="8" height="9" viewBox="0 0 8 9" fill="none" xmlns="http://www.w3.org/2000/svg">
<path fill-rule="evenodd" clip-rule="evenodd" d="M5.91402 5.28857C5.81564 5.23467 5.33187 4.97368 5.24122 4.9368C5.15057 4.89991 5.08438 4.88067 5.01385 4.97867C4.94322 5.07625 4.74255 5.29486 4.6817 5.3596C4.62063 5.42436 4.56189 5.43038 4.46352 5.37636C4.36514 5.32259 4.04594 5.20446 3.67598 4.84876C3.38792 4.57196 3.19903 4.23615 3.14421 4.13358C3.08939 4.03116 3.14381 3.97882 3.19587 3.93082C3.24272 3.88751 3.30055 3.81739 3.35286 3.76076C3.40505 3.7041 3.42352 3.66303 3.45935 3.59737C3.49533 3.53168 3.4808 3.47255 3.45764 3.42154C3.43436 3.37038 3.2524 2.86962 3.1764 2.66581C3.10038 2.46213 3.01562 2.49234 2.95714 2.4901C2.89867 2.48789 2.83208 2.47703 2.76522 2.47455C2.69838 2.47206 2.58888 2.49299 2.49326 2.59006C2.39762 2.68674 2.12958 2.9196 2.11114 3.4129C2.09269 3.90608 2.43387 4.39627 2.48149 4.46482C2.52909 4.53362 3.13322 5.6028 4.13724 6.04261C5.14141 6.48215 5.1465 6.34819 5.33084 6.33825C5.51528 6.32857 5.93312 6.11796 6.02547 5.88707C6.11783 5.65629 6.12528 5.45549 6.10175 5.41271C6.07819 5.37006 6.01227 5.34234 5.91402 5.28857ZM4.07263 7.66554C3.40859 7.66554 2.79021 7.46629 2.27387 7.12499L1.01749 7.52714L1.42592 6.31314C1.03451 5.77404 0.803347 5.1117 0.803347 4.39627C0.803347 2.59333 2.26996 1.12674 4.07263 1.12674C5.87543 1.12674 7.34202 2.59333 7.34202 4.39627C7.34202 6.19893 5.87543 7.66554 4.07263 7.66554ZM4.07263 0.468842C1.90366 0.468842 0.145347 2.22718 0.145347 4.39627C0.145347 5.13825 0.351368 5.83213 0.708905 6.42421L0 8.53116L2.17446 7.83507C2.73709 8.14617 3.38413 8.32356 4.07263 8.32356C6.24158 8.32356 8.00004 6.56509 8.00004 4.39627C8.00004 2.22718 6.24158 0.468842 4.07263 0.468842Z" fill="#25D366"/>
</svg>
