<svg width="24" height="24" viewBox="0 0 24 24" fill="none" xmlns="http://www.w3.org/2000/svg">
<g clip-path="url(#clip0_128_384)">
<path d="M24 22C24 23.105 23.105 24 22 24C21.262 24 20.624 23.595 20.277 23H19C17.346 23 16 21.654 16 20V15C16 14.447 16.448 14 17 14C17.552 14 18 14.447 18 15V20C18 20.552 18.449 21 19 21H20.277C20.623 20.405 21.261 20 22 20C23.105 20 24 20.895 24 22ZM13 20.277V15C13 14.447 12.552 14 12 14C11.448 14 11 14.447 11 15V20.277C10.405 20.623 10 21.261 10 22C10 23.105 10.895 24 12 24C13.105 24 14 23.105 14 22C14 21.262 13.595 20.624 13 20.277ZM7 14C6.448 14 6 14.447 6 15V20C6 20.552 5.551 21 5 21H3.723C3.377 20.405 2.739 20 2 20C0.895 20 0 20.895 0 22C0 23.105 0.895 24 2 24C2.738 24 3.376 23.595 3.723 23H5C6.654 23 8 21.654 8 20V15C8 14.447 7.552 14 7 14ZM21 11.454C21 12.433 20.713 13.378 20.17 14.186C19.862 14.645 19.984 15.266 20.442 15.574C20.901 15.884 21.523 15.759 21.83 15.302C22.595 14.162 22.999 12.832 22.999 11.454C22.999 8.17002 20.665 5.32102 17.448 4.68002C17.175 4.62502 16.952 4.45502 16.838 4.21202C15.411 1.20102 12.107 -0.479982 8.799 0.127017C5.787 0.678017 3.425 3.08302 2.922 6.11102C2.774 7.00502 2.784 7.89902 2.952 8.77002C3 9.01902 2.891 9.30002 2.667 9.50402C1.607 10.467 1 11.84 1 13.272C1 14.527 1.46 15.733 2.297 16.667C2.495 16.888 2.768 17 3.043 17C3.28 17 3.519 16.916 3.71 16.745C4.122 16.377 4.156 15.744 3.788 15.333C3.28 14.767 3.001 14.034 3.001 13.272C3.001 12.403 3.37 11.569 4.014 10.985C4.751 10.314 5.097 9.32002 4.918 8.38902C4.794 7.75302 4.788 7.09702 4.897 6.43902C5.257 4.27402 7.01 2.48702 9.161 2.09302C11.611 1.64802 13.975 2.83902 15.033 5.06902C15.422 5.88802 16.16 6.46202 17.059 6.64002C19.343 7.09602 21.001 9.12002 21.001 11.453L21 11.454Z" fill="#666666"/>
</g>
<defs>
<clipPath id="clip0_128_384">
<rect width="24" height="24" fill="white"/>
</clipPath>
</defs>
</svg>
