<svg width="24" height="24" viewBox="0 0 24 24" fill="none" xmlns="http://www.w3.org/2000/svg">
<g clip-path="url(#clip0_128_392)">
<path d="M19 0H5C2.243 0 0 2.243 0 5V19C0 21.757 2.243 24 5 24H19C21.757 24 24 21.757 24 19V5C24 2.243 21.757 0 19 0ZM22 19C22 20.654 20.654 22 19 22H5C3.346 22 2 20.654 2 19V5C2 3.346 3.346 2 5 2H19C20.654 2 22 3.346 22 5V19ZM13 18C13 18.553 12.552 19 12 19C11.448 19 11 18.553 11 18C11 15.243 8.757 13 6 13C5.448 13 5 12.553 5 12C5 11.447 5.448 11 6 11C9.86 11 13 14.141 13 18ZM19 18C19 18.553 18.552 19 18 19C17.448 19 17 18.553 17 18C17 11.935 12.065 7 6 7C5.448 7 5 6.553 5 6C5 5.447 5.448 5 6 5C13.168 5 19 10.832 19 18ZM8 17.5C8 18.328 7.328 19 6.5 19C5.672 19 5 18.328 5 17.5C5 16.672 5.672 16 6.5 16C7.328 16 8 16.672 8 17.5Z" fill="#666666"/>
</g>
<defs>
<clipPath id="clip0_128_392">
<rect width="24" height="24" fill="white"/>
</clipPath>
</defs>
</svg>
