<svg width="24" height="24" viewBox="0 0 24 24" fill="none" xmlns="http://www.w3.org/2000/svg">
<g clip-path="url(#clip0_128_359)">
<path d="M5.99989 11.9999C9.30889 11.9999 11.9999 9.3089 11.9999 5.9999C11.9999 2.6909 9.30889 -0.000100741 5.99989 -0.000100741C2.69089 -0.000100741 -0.000105718 2.6909 -0.000105718 5.9999C-0.000105718 9.3089 2.69089 11.9999 5.99989 11.9999ZM5.99989 1.9999C8.20589 1.9999 9.99989 3.7939 9.99989 5.9999C9.99989 7.1269 9.52789 8.1429 8.77489 8.8699C8.32889 7.7749 7.25889 6.9999 6.00489 6.9999H5.99489C4.73989 6.9999 3.66889 7.7739 3.22289 8.8689C2.47189 8.1409 1.99989 7.1269 1.99989 5.9999C1.99989 3.7939 3.79389 1.9999 5.99989 1.9999ZM4.49989 4.4999C4.49989 3.6719 5.17189 2.9999 5.99989 2.9999C6.82789 2.9999 7.49989 3.6719 7.49989 4.4999C7.49989 5.3279 6.82789 5.9999 5.99989 5.9999C5.17189 5.9999 4.49989 5.3279 4.49989 4.4999ZM23.3629 6.8789C23.2439 6.9259 23.1209 6.9469 22.9999 6.9469C22.5999 6.9469 22.2219 6.7059 22.0679 6.3099L20.9539 3.4549C17.2969 11.2069 10.6799 16.4209 1.25989 18.9659C1.17289 18.9889 1.08489 18.9999 0.998894 18.9999C0.557894 18.9999 0.153894 18.7069 0.0338943 18.2609C-0.110106 17.7279 0.204894 17.1789 0.738894 17.0339C9.59789 14.6409 15.7959 9.7549 19.1889 2.5019L16.1169 3.6999C15.5999 3.9019 15.0219 3.6449 14.8219 3.1319C14.6209 2.6169 14.8759 2.0379 15.3899 1.8369L19.7909 0.119899C20.7479 -0.256101 21.8389 0.221899 22.2149 1.1819L23.9319 5.5829C24.1329 6.0979 23.8779 6.6769 23.3639 6.8779L23.3629 6.8789ZM22.9999 8.9999V22.9999C22.9999 23.5529 22.5519 23.9999 21.9999 23.9999C21.4479 23.9999 20.9999 23.5529 20.9999 22.9999V8.9999C20.9999 8.4469 21.4479 7.9999 21.9999 7.9999C22.5519 7.9999 22.9999 8.4469 22.9999 8.9999ZM17.9999 13.9999V22.9999C17.9999 23.5529 17.5519 23.9999 16.9999 23.9999C16.4479 23.9999 15.9999 23.5529 15.9999 22.9999V13.9999C15.9999 13.4469 16.4479 12.9999 16.9999 12.9999C17.5519 12.9999 17.9999 13.4469 17.9999 13.9999ZM12.9999 17.9999V22.9999C12.9999 23.5529 12.5519 23.9999 11.9999 23.9999C11.4479 23.9999 10.9999 23.5529 10.9999 22.9999V17.9999C10.9999 17.4469 11.4479 16.9999 11.9999 16.9999C12.5519 16.9999 12.9999 17.4469 12.9999 17.9999ZM7.99989 19.9999V22.9999C7.99989 23.5529 7.55189 23.9999 6.99989 23.9999C6.44789 23.9999 5.99989 23.5529 5.99989 22.9999V19.9999C5.99989 19.4469 6.44789 18.9999 6.99989 18.9999C7.55189 18.9999 7.99989 19.4469 7.99989 19.9999ZM2.99989 21.9999V22.9999C2.99989 23.5529 2.55189 23.9999 1.99989 23.9999C1.44789 23.9999 0.999894 23.5529 0.999894 22.9999V21.9999C0.999894 21.4469 1.44789 20.9999 1.99989 20.9999C2.55189 20.9999 2.99989 21.4469 2.99989 21.9999Z" fill="#666666"/>
</g>
<defs>
<clipPath id="clip0_128_359">
<rect width="24" height="24" fill="white"/>
</clipPath>
</defs>
</svg>
