<svg width="24" height="24" viewBox="0 0 24 24" fill="none" xmlns="http://www.w3.org/2000/svg">
<g clip-path="url(#clip0_128_400)">
<path d="M21.5 13.163V10.837C22.941 10.403 24 9.08 24 7.5C24 5.57 22.43 4 20.5 4C19.516 4 18.63 4.411 17.993 5.067L15.486 3.5C15.486 1.571 13.916 0 11.986 0C10.056 0 8.486 1.57 8.486 3.5C8.486 3.505 8.488 3.51 8.488 3.516L6.007 5.067C5.371 4.411 4.484 4 3.5 4C1.57 4 0 5.57 0 7.5C0 9.08 1.059 10.403 2.5 10.837V13.163C1.059 13.597 0 14.92 0 16.5C0 18.43 1.57 20 3.5 20C4.484 20 5.37 19.589 6.007 18.933L8.488 20.484C8.488 20.489 8.486 20.494 8.486 20.5C8.486 22.43 10.056 24 11.986 24C13.916 24 15.486 22.43 15.486 20.5L17.993 18.933C18.629 19.589 19.516 20 20.5 20C22.43 20 24 18.43 24 16.5C24 14.92 22.941 13.597 21.5 13.163ZM20.5 6C21.327 6 22 6.673 22 7.5C22 8.327 21.327 9 20.5 9C19.673 9 19 8.327 19 7.5C19 6.673 19.673 6 20.5 6ZM11.986 2C12.813 2 13.486 2.673 13.486 3.5C13.486 4.327 12.813 5 11.986 5C11.339 5 10.792 4.586 10.582 4.011C10.584 3.87 10.556 3.732 10.496 3.598C10.494 3.565 10.486 3.534 10.486 3.5C10.486 2.673 11.159 2 11.986 2ZM2 7.5C2 6.673 2.673 6 3.5 6C4.327 6 5 6.673 5 7.5C5 8.327 4.327 9 3.5 9C2.673 9 2 8.327 2 7.5ZM3.5 18C2.673 18 2 17.327 2 16.5C2 15.673 2.673 15 3.5 15C4.327 15 5 15.673 5 16.5C5 17.327 4.327 18 3.5 18ZM11.986 22C11.159 22 10.486 21.327 10.486 20.5C10.486 19.673 11.159 19 11.986 19C12.813 19 13.486 19.673 13.486 20.5C13.486 21.327 12.813 22 11.986 22ZM14.872 18.526C14.241 17.606 13.183 17 11.986 17C10.789 17 9.742 17.601 9.11 18.514L6.934 17.154C6.974 16.941 7 16.724 7 16.5C7 14.92 5.941 13.597 4.5 13.163V10.837C5.941 10.403 7 9.08 7 7.5C7 7.276 6.974 7.058 6.934 6.846L9.11 5.486C9.742 6.399 10.794 7 11.986 7C13.178 7 14.24 6.394 14.872 5.474L17.066 6.845C17.026 7.058 17 7.275 17 7.499C17 9.079 18.059 10.402 19.5 10.836V13.162C18.059 13.596 17 14.919 17 16.499C17 16.723 17.026 16.941 17.066 17.153L14.872 18.524V18.526ZM20.5 18C19.673 18 19 17.327 19 16.5C19 15.673 19.673 15 20.5 15C21.327 15 22 15.673 22 16.5C22 17.327 21.327 18 20.5 18ZM13 13.108L16 11.393V13.509C16 14.119 15.685 14.687 15.168 15.011L13 16.366V13.108ZM15.343 9.589L12 11.499L8.657 9.589L10.842 8.223C11.551 7.78 12.45 7.78 13.158 8.223L15.343 9.589ZM8 11.393L11 13.108V16.366L8.832 15.011C8.314 14.687 8 14.12 8 13.509V11.393Z" fill="#666666"/>
</g>
<defs>
<clipPath id="clip0_128_400">
<rect width="24" height="24" fill="white"/>
</clipPath>
</defs>
</svg>
