<svg width="24" height="24" viewBox="0 0 24 24" fill="none" xmlns="http://www.w3.org/2000/svg">
<g clip-path="url(#clip0_128_375)">
<path d="M6 0C2.691 0 0 2.691 0 6C0 9.309 2.691 12 6 12C9.309 12 12 9.309 12 6C12 2.691 9.309 0 6 0ZM8.776 8.87C8.331 7.775 7.262 7 6.008 7H5.992C4.738 7 3.667 7.773 3.223 8.868C2.472 8.14 2.001 7.126 2.001 6C2.001 3.794 3.795 2 6.001 2C8.207 2 10.001 3.794 10.001 6C10.001 7.127 9.529 8.142 8.777 8.87H8.776ZM7.5 4.5C7.5 5.328 6.828 6 6 6C5.172 6 4.5 5.328 4.5 4.5C4.5 3.672 5.172 3 6 3C6.828 3 7.5 3.672 7.5 4.5ZM18 12C14.691 12 12 14.691 12 18C12 21.309 14.691 24 18 24C21.309 24 24 21.309 24 18C24 14.691 21.309 12 18 12ZM20.776 20.87C20.331 19.775 19.262 19 18.008 19H17.992C16.738 19 15.667 19.773 15.223 20.868C14.472 20.14 14.001 19.126 14.001 18C14.001 15.794 15.795 14 18.001 14C20.207 14 22.001 15.794 22.001 18C22.001 19.127 21.529 20.142 20.777 20.87H20.776ZM19.5 16.5C19.5 17.328 18.828 18 18 18C17.172 18 16.5 17.328 16.5 16.5C16.5 15.672 17.172 15 18 15C18.828 15 19.5 15.672 19.5 16.5ZM14 4C14 3.448 14.447 3 15 3H17C19.206 3 21 4.794 21 7V9C21 9.552 20.553 10 20 10C19.447 10 19 9.552 19 9V7C19 5.897 18.103 5 17 5H15C14.447 5 14 4.552 14 4ZM10 20C10 20.552 9.553 21 9 21H7C4.794 21 3 19.206 3 17V15C3 14.448 3.447 14 4 14C4.553 14 5 14.448 5 15V17C5 18.103 5.897 19 7 19H9C9.553 19 10 19.448 10 20Z" fill="#666666"/>
</g>
<defs>
<clipPath id="clip0_128_375">
<rect width="24" height="24" fill="white"/>
</clipPath>
</defs>
</svg>
