<svg width="24" height="24" viewBox="0 0 24 24" fill="none" xmlns="http://www.w3.org/2000/svg">
<g clip-path="url(#clip0_128_367)">
<path d="M24 2V6C24 6.552 23.553 7 23 7C22.447 7 22 6.552 22 6V3.414L17.937 7.476C16.593 8.82 14.406 8.821 13.062 7.476L10.523 4.938C9.95801 4.373 9.04001 4.375 8.47601 4.938L1.70701 11.707C1.51201 11.902 1.25601 12 1.00001 12C0.744006 12 0.488006 11.902 0.293006 11.707C-0.0979941 11.316 -0.0979941 10.684 0.293006 10.293L7.06201 3.524C8.40601 2.18 10.593 2.179 11.937 3.524L14.476 6.062C15.041 6.628 15.959 6.625 16.523 6.062L20.585 2H17.999C17.446 2 16.999 1.552 16.999 1C16.999 0.448 17.446 0 17.999 0H21.999C23.102 0 24 0.897 24 2ZM21.685 16.267L18.645 15.761C18.271 15.699 18 15.379 18 15C18 14.448 18.448 14 19 14H21.268C21.624 14 21.956 14.191 22.135 14.501C22.409 14.979 23.02 15.144 23.501 14.865C23.979 14.589 24.143 13.977 23.865 13.499C23.331 12.575 22.335 12 21.267 12H20.999V11C20.999 10.448 20.552 10 19.999 10C19.446 10 18.999 10.448 18.999 11V12C17.345 12 15.999 13.346 15.999 15C15.999 16.359 16.973 17.51 18.314 17.733L21.354 18.239C21.728 18.301 21.999 18.621 21.999 19C21.999 19.552 21.551 20 20.999 20H18.731C18.375 20 18.043 19.809 17.864 19.499C17.589 19.02 16.976 18.854 16.498 19.135C16.02 19.411 15.856 20.023 16.134 20.501C16.668 21.426 17.664 22 18.732 22H19V23C19 23.553 19.447 24 20 24C20.553 24 21 23.553 21 23V22C22.654 22 24 20.654 24 19C24 17.641 23.026 16.49 21.685 16.267ZM2.00001 14C1.44701 14 1.00001 14.447 1.00001 15V23C1.00001 23.553 1.44701 24 2.00001 24C2.55301 24 3.00001 23.553 3.00001 23V15C3.00001 14.447 2.55301 14 2.00001 14ZM7.00001 9.5C6.44701 9.5 6.00001 9.948 6.00001 10.5V23C6.00001 23.553 6.44701 24 7.00001 24C7.55301 24 8.00001 23.553 8.00001 23V10.5C8.00001 9.948 7.55301 9.5 7.00001 9.5ZM12 9.5C11.447 9.5 11 9.948 11 10.5V23C11 23.553 11.447 24 12 24C12.553 24 13 23.553 13 23V10.5C13 9.948 12.553 9.5 12 9.5Z" fill="#666666"/>
</g>
<defs>
<clipPath id="clip0_128_367">
<rect width="24" height="24" fill="white"/>
</clipPath>
</defs>
</svg>
