<svg width="20" height="20" viewBox="0 0 20 20" fill="none" xmlns="http://www.w3.org/2000/svg">
                                                <g clip-path="url(#clip0_707_2436)">
                                                    <path
                                                            d="M20 10C20 15.5167 15.5167 20 10 20C4.48333 20 0 15.5167 0 10C0 4.48333 4.48333 0 10 0C10.6083 0 11.225 0.0583333 11.8167 0.166667C12.2667 0.25 12.5667 0.683333 12.4833 1.13333C12.4 1.58333 11.9667 1.88333 11.5167 1.8C11.025 1.70833 10.5083 1.66667 10 1.66667C5.40833 1.66667 1.66667 5.40833 1.66667 10C1.66667 14.5917 5.40833 18.3333 10 18.3333C14.5917 18.3333 18.3333 14.5917 18.3333 10C18.3333 9.49167 18.2833 8.98333 18.2 8.48333C18.1167 8.03333 18.4167 7.6 18.8667 7.51667C19.325 7.43333 19.75 7.73333 19.8333 8.18333C19.9417 8.775 20 9.39167 20 10ZM10.7167 5.05C11.175 5.11667 11.5917 4.8 11.6583 4.34167C11.725 3.88333 11.4083 3.46667 10.95 3.4C10.6333 3.35833 10.3167 3.33333 10 3.33333C6.325 3.33333 3.33333 6.325 3.33333 10C3.33333 13.675 6.325 16.6667 10 16.6667C13.675 16.6667 16.6667 13.675 16.6667 10C16.6667 9.68333 16.6417 9.36667 16.6 9.05C16.5333 8.59167 16.1167 8.275 15.6583 8.34167C15.2 8.40833 14.8833 8.825 14.95 9.28333C14.9833 9.51667 15 9.75833 15 10C15 12.7583 12.7583 15 10 15C7.24167 15 5 12.7583 5 10C5 7.24167 7.24167 5 10 5C10.2417 5 10.4833 5.01667 10.7167 5.05ZM8.89167 8.75833C9.23333 8.45 9.26667 7.925 8.95833 7.58333C8.65 7.24167 8.125 7.20833 7.78333 7.51667C7.075 8.15 6.675 9.05833 6.675 10C6.675 11.8417 8.16667 13.3333 10.0083 13.3333C10.9583 13.3333 11.8583 12.925 12.4917 12.225C12.8 11.8833 12.7667 11.3583 12.425 11.05C12.0833 10.7417 11.5583 10.775 11.25 11.1167C10.9333 11.4667 10.4833 11.675 10.0083 11.675C9.09167 11.675 8.34167 10.925 8.34167 10.0083C8.34167 9.53333 8.54167 9.08333 8.9 8.76667L8.89167 8.75833ZM10.25 8.575C9.925 8.9 9.925 9.425 10.25 9.75C10.4167 9.91667 10.625 9.99167 10.8417 9.99167C11.0583 9.99167 11.2667 9.90833 11.4333 9.75L15.3583 5.825H17.5167C17.7417 5.825 17.95 5.73333 18.1083 5.58333L19.775 3.91667C20.0167 3.675 20.0833 3.31667 19.9583 3.00833C19.8333 2.7 19.525 2.49167 19.1917 2.49167H17.525V0.833333C17.525 0.5 17.325 0.191667 17.0083 0.0666667C16.6917 -0.0666667 16.3417 0.00833335 16.1 0.25L14.4333 1.91667C14.275 2.075 14.1917 2.28333 14.1917 2.50833V4.66667L10.2667 8.59167L10.25 8.575Z"
                                                            fill="#007F61"
                                                    />
                                                </g>
                                            </svg>