<svg width="20" height="20" viewBox="0 0 20 20" fill="none" xmlns="http://www.w3.org/2000/svg">
                                                <g clip-path="url(#clip0_707_2468)">
                                                    <path
                                                            d="M10 7.5C14.945 7.37 14.9442 0.129167 10 0C5.055 0.13 5.05583 7.37083 10 7.5ZM10 1.66667C12.7383 1.71583 12.7375 5.785 10 5.83333C7.2625 5.78417 7.2625 1.715 10 1.66667ZM18.5033 9.30167C17.5508 8.5075 16.3033 8.17917 15.0875 8.40083L11.9033 8.98C11.1425 9.11833 10.4808 9.50833 10 10.0542C9.51833 9.50833 8.8575 9.11833 8.09583 8.98L4.91167 8.40083C3.69417 8.18083 2.44833 8.5075 1.49667 9.30167C0.545 10.0958 0 11.2617 0 12.5008V14.8283C0 16.8425 1.43917 18.5667 3.42167 18.9275L8.65833 19.88C9.54833 20.0417 10.4508 20.0417 11.3408 19.88L16.5783 18.9275C18.5608 18.5667 19.9992 16.8425 19.9992 14.8283V12.5008C19.9992 11.2617 19.4542 10.0958 18.5025 9.3025L18.5033 9.30167ZM9.16667 18.2742C9.09667 18.2642 9.02667 18.2525 8.95667 18.24L3.72 17.2875C2.53 17.0708 1.66667 16.0367 1.66667 14.8275V12.5C1.66667 11.7567 1.99417 11.0575 2.565 10.5808C3.13583 10.1033 3.89 9.9075 4.61417 10.0408L7.79833 10.62C8.59167 10.7642 9.16667 11.4533 9.16667 12.26V18.2742ZM18.3333 14.8283C18.3333 16.0375 17.47 17.0717 16.2808 17.2883L11.0433 18.2408C10.9733 18.2533 10.9033 18.265 10.8333 18.275V12.2608C10.8333 11.455 11.4083 10.765 12.2017 10.6208L15.3858 10.0417C16.115 9.90833 16.8642 10.1058 17.4358 10.5817C18.0067 11.0583 18.3333 11.7575 18.3333 12.5008V14.8283Z"
                                                            fill="#007F61"
                                                    />
                                                </g>
                                            </svg>