<svg width="20" height="20" viewBox="0 0 20 20" fill="none" xmlns="http://www.w3.org/2000/svg">
                                                <g clip-path="url(#clip0_707_2521)">
                                                    <path
                                                            d="M13.3333 0H6.66667C4.36917 0 2.5 1.86917 2.5 4.16667V15.8333C2.5 18.1308 4.36917 20 6.66667 20H8.33333C8.79333 20 9.16667 19.6267 9.16667 19.1667V15H10.8333V19.1667C10.8333 19.6267 11.2067 20 11.6667 20H13.3333C15.6308 20 17.5 18.1308 17.5 15.8333V4.16667C17.5 1.86917 15.6308 0 13.3333 0ZM15.8333 15.8333C15.8333 17.2117 14.7117 18.3333 13.3333 18.3333H12.5V15H13.3333C13.7933 15 14.1667 14.6267 14.1667 14.1667C14.1667 13.7067 13.7933 13.3333 13.3333 13.3333H6.66667C6.20667 13.3333 5.83333 13.7067 5.83333 14.1667C5.83333 14.6267 6.20667 15 6.66667 15H7.5V18.3333H6.66667C5.28833 18.3333 4.16667 17.2117 4.16667 15.8333V4.16667C4.16667 2.78833 5.28833 1.66667 6.66667 1.66667H13.3333C14.7117 1.66667 15.8333 2.78833 15.8333 4.16667V15.8333ZM9.16667 10.8333C9.16667 11.2933 8.79333 11.6667 8.33333 11.6667H7.5C7.04 11.6667 6.66667 11.2933 6.66667 10.8333C6.66667 10.3733 7.04 10 7.5 10H8.33333C8.79333 10 9.16667 10.3733 9.16667 10.8333ZM13.3333 10.8333C13.3333 11.2933 12.96 11.6667 12.5 11.6667H11.6667C11.2067 11.6667 10.8333 11.2933 10.8333 10.8333C10.8333 10.3733 11.2067 10 11.6667 10H12.5C12.96 10 13.3333 10.3733 13.3333 10.8333ZM9.16667 4.16667C9.16667 4.62667 8.79333 5 8.33333 5H7.5C7.04 5 6.66667 4.62667 6.66667 4.16667C6.66667 3.70667 7.04 3.33333 7.5 3.33333H8.33333C8.79333 3.33333 9.16667 3.70667 9.16667 4.16667ZM13.3333 4.16667C13.3333 4.62667 12.96 5 12.5 5H11.6667C11.2067 5 10.8333 4.62667 10.8333 4.16667C10.8333 3.70667 11.2067 3.33333 11.6667 3.33333H12.5C12.96 3.33333 13.3333 3.70667 13.3333 4.16667ZM9.16667 7.5C9.16667 7.96 8.79333 8.33333 8.33333 8.33333H7.5C7.04 8.33333 6.66667 7.96 6.66667 7.5C6.66667 7.04 7.04 6.66667 7.5 6.66667H8.33333C8.79333 6.66667 9.16667 7.04 9.16667 7.5ZM13.3333 7.5C13.3333 7.96 12.96 8.33333 12.5 8.33333H11.6667C11.2067 8.33333 10.8333 7.96 10.8333 7.5C10.8333 7.04 11.2067 6.66667 11.6667 6.66667H12.5C12.96 6.66667 13.3333 7.04 13.3333 7.5Z"
                                                            fill="#007F61"
                                                    />
                                                </g>
                                            </svg>