<svg width="20" height="20" viewBox="0 0 20 20" fill="none" xmlns="http://www.w3.org/2000/svg">
                                                <g clip-path="url(#clip0_707_2473)">
                                                    <path
                                                            d="M15.8336 10H13.6553L14.1053 6.39083C14.1839 6.02575 14.1802 5.64774 14.0944 5.28427C14.0087 4.92081 13.843 4.581 13.6095 4.28956C13.376 3.99812 13.0805 3.76236 12.7445 3.5994C12.4085 3.43645 12.0404 3.3504 11.6669 3.3475H9.69277C9.7836 2.705 9.7286 1.675 10.6378 1.67083H13.3336C13.5546 1.67083 13.7666 1.58304 13.9229 1.42675C14.0791 1.27047 14.1669 1.05851 14.1669 0.837499C14.1669 0.616485 14.0791 0.404524 13.9229 0.248243C13.7666 0.091963 13.5546 0.00416565 13.3336 0.00416565H10.6378C10.0287 0.00454059 9.44068 0.227263 8.98419 0.630508C8.5277 1.03375 8.23413 1.58978 8.1586 2.19417L8.01443 3.3475H2.50027C2.13427 3.35142 1.77352 3.43511 1.44318 3.59273C1.11283 3.75035 0.820825 3.9781 0.587511 4.26012C0.354198 4.54215 0.185188 4.87165 0.0922576 5.22568C-0.000672408 5.57971 -0.0152866 5.94974 0.0494335 6.31L1.31027 16.3583C1.43776 17.3648 1.9277 18.2902 2.68837 18.9615C3.44904 19.6327 4.42828 20.0037 5.44277 20.005L15.8336 19.995C16.3808 19.995 16.9226 19.8872 17.4281 19.6778C17.9336 19.4684 18.393 19.1615 18.7799 18.7746C19.1668 18.3877 19.4737 17.9284 19.6831 17.4228C19.8925 16.9173 20.0003 16.3755 20.0003 15.8283V14.1667C20.0003 13.6195 19.8925 13.0777 19.6831 12.5722C19.4737 12.0666 19.1668 11.6073 18.7799 11.2204C18.393 10.8335 17.9336 10.5266 17.4281 10.3172C16.9226 10.1078 16.3808 10 15.8336 10ZM18.3336 14.1667H8.3336C8.3336 13.5036 8.59699 12.8677 9.06583 12.3989C9.53467 11.9301 10.1706 11.6667 10.8336 11.6667H15.8336C16.4966 11.6667 17.1325 11.9301 17.6014 12.3989C18.0702 12.8677 18.3336 13.5036 18.3336 14.1667ZM11.6669 5.01333C11.7986 5.01404 11.9282 5.0456 12.0455 5.10547C12.1628 5.16533 12.2643 5.25185 12.3421 5.35807C12.4199 5.46429 12.4717 5.58726 12.4934 5.71712C12.5151 5.84698 12.506 5.98011 12.4669 6.10583L12.3944 6.66667H9.27777L9.48443 5.01167L11.6669 5.01333ZM1.8536 5.325C1.93135 5.22814 2.02977 5.14989 2.14165 5.09596C2.25354 5.04204 2.37606 5.01381 2.50027 5.01333H7.8061L7.5986 6.66667H1.77027L1.68693 6.025C1.66022 5.9033 1.66134 5.77714 1.6902 5.65594C1.71906 5.53473 1.77491 5.4216 1.8536 5.325ZM2.9636 16.1517L1.98027 8.33333H12.1861L11.9769 10H10.8336C9.72853 10 8.66872 10.439 7.88732 11.2204C7.10592 12.0018 6.66693 13.0616 6.66693 14.1667C6.63193 15.5283 6.5836 17.2833 7.53027 18.3417H5.44277C4.83368 18.3413 4.24568 18.1186 3.78919 17.7153C3.3327 17.3121 3.03913 16.7561 2.9636 16.1517ZM15.8336 18.3333H10.8336C10.1706 18.3333 9.53467 18.0699 9.06583 17.6011C8.59699 17.1323 8.3336 16.4964 8.3336 15.8333H11.4169C11.7394 15.9883 13.8128 17.5925 14.1669 17.5C14.5136 17.5983 16.6086 15.9808 16.9169 15.8333H18.3336C18.3336 16.4964 18.0702 17.1323 17.6014 17.6011C17.1325 18.0699 16.4966 18.3333 15.8336 18.3333Z"
                                                            fill="#007F61"
                                                    />
                                                </g>
                                            </svg>