<svg width="20" height="20" viewBox="0 0 20 20" fill="none" xmlns="http://www.w3.org/2000/svg">
                                                <g clip-path="url(#clip0_707_2526)">
                                                    <path
                                                            d="M19.9997 11.0925C19.9995 11.448 19.9148 11.7984 19.7524 12.1147C19.59 12.431 19.3547 12.7041 19.0659 12.9114C18.777 13.1187 18.443 13.2543 18.0914 13.3069C17.7398 13.3596 17.3807 13.3278 17.0438 13.2142L12.4997 11.5975V14.8683L13.8713 15.7683C14.2184 15.9955 14.5034 16.3057 14.7004 16.6708C14.8975 17.0359 15.0003 17.4443 14.9997 17.8592C14.9996 18.2018 14.9169 18.5394 14.7585 18.8433C14.6001 19.1472 14.3707 19.4083 14.0898 19.6046C13.809 19.8009 13.4849 19.9266 13.1451 19.9709C12.8053 20.0152 12.4598 19.9769 12.138 19.8592L9.99966 19.0833L7.86633 19.8675C7.54506 19.9855 7.20009 20.0243 6.86064 19.9806C6.52119 19.937 6.19727 19.8121 5.91633 19.6167C5.61964 19.3845 5.38335 19.0841 5.22748 18.7411C5.07161 18.3981 5.00078 18.0226 5.02098 17.6464C5.04118 17.2702 5.15182 16.9044 5.34352 16.5801C5.53522 16.2557 5.80232 15.9824 6.12216 15.7833L7.49966 14.8708L7.49966 11.5975L2.96883 13.2108C2.63027 13.3263 2.26905 13.3594 1.91514 13.3074C1.56123 13.2554 1.22482 13.1197 0.933825 12.9117C0.619076 12.6638 0.371294 12.3412 0.213025 11.9732C0.0547558 11.6052 -0.00897571 11.2035 0.0276294 10.8045C0.0642345 10.4056 0.200014 10.0222 0.422613 9.68909C0.645213 9.35603 0.947565 9.08391 1.30216 8.8975L7.49966 5.35V2.58917C7.49208 1.98647 7.69659 1.40029 8.07741 0.933096C8.45823 0.465902 8.99115 0.147423 9.58299 0.0333328C9.94161 -0.0272846 10.3091 -0.00892448 10.6599 0.0871315C11.0107 0.183187 11.3363 0.354626 11.614 0.589485C11.8917 0.824347 12.1149 1.11697 12.2678 1.44695C12.4208 1.77692 12.4999 2.1363 12.4997 2.5V5.35L18.7113 8.90583C19.1023 9.12139 19.4282 9.43808 19.6549 9.82277C19.8815 10.2075 20.0006 10.646 19.9997 11.0925ZM10.833 15.3183V10.4167C10.8341 10.2836 10.8669 10.1528 10.9287 10.0349C10.9904 9.91708 11.0793 9.81561 11.188 9.73891C11.2967 9.66221 11.4221 9.61248 11.5538 9.59383C11.6855 9.57519 11.8198 9.58815 11.9455 9.63167L17.5897 11.64C17.6743 11.6668 17.7641 11.6733 17.8517 11.6588C17.9394 11.6443 18.0223 11.6093 18.0938 11.5567C18.1771 11.4726 18.2393 11.3701 18.2754 11.2574C18.3114 11.1447 18.3203 11.025 18.3013 10.9083C18.2823 10.7915 18.2359 10.6808 18.166 10.5854C18.096 10.49 18.0045 10.4125 17.8988 10.3592L11.2497 6.55667C11.1227 6.48339 11.0174 6.37793 10.9442 6.25093C10.8711 6.12394 10.8327 5.97989 10.833 5.83333L10.833 2.5C10.833 2.37819 10.8064 2.25784 10.7549 2.14744C10.7034 2.03704 10.6284 1.93927 10.535 1.86102C10.4417 1.78276 10.3323 1.72592 10.2146 1.6945C10.0969 1.66308 9.97376 1.65785 9.85383 1.67916C9.65199 1.72852 9.47337 1.84601 9.34811 2.0118C9.22286 2.17759 9.15865 2.38152 9.16633 2.58917L9.16633 5.83333C9.16661 5.97989 9.12825 6.12394 9.05509 6.25093C8.98194 6.37793 8.87658 6.48339 8.74966 6.55667L2.11549 10.3525C2.00639 10.4031 1.91116 10.4794 1.83795 10.5748C1.76474 10.6703 1.71572 10.782 1.69508 10.9005C1.67445 11.019 1.68281 11.1407 1.71945 11.2553C1.75609 11.3698 1.81992 11.4738 1.90549 11.5583C1.97929 11.6116 2.06479 11.6465 2.15482 11.66C2.24486 11.6735 2.33681 11.6652 2.42299 11.6358L8.05383 9.63583C8.17921 9.59243 8.31312 9.5794 8.44452 9.59783C8.57592 9.61627 8.70108 9.66563 8.80968 9.74186C8.91829 9.81809 9.00725 9.91901 9.06926 10.0363C9.13126 10.1536 9.16453 10.284 9.16633 10.4167V15.3183C9.16635 15.456 9.13226 15.5915 9.06711 15.7128C9.00197 15.8341 8.90779 15.9373 8.79299 16.0133L7.04299 17.1742C6.69216 17.3642 6.51216 18.0358 6.86799 18.2492C6.92878 18.2927 6.99945 18.3205 7.07365 18.33C7.14784 18.3394 7.22322 18.3303 7.29299 18.3033L9.71466 17.41C9.90026 17.3418 10.1041 17.3418 10.2897 17.41L12.7147 18.2983C12.7844 18.3231 12.8591 18.3308 12.9325 18.3208C13.0058 18.3107 13.0757 18.2832 13.1363 18.2406C13.1968 18.1981 13.2463 18.1416 13.2805 18.0759C13.3147 18.0103 13.3327 17.9374 13.333 17.8633C13.3331 17.7249 13.2987 17.5887 13.2329 17.4669C13.1671 17.3452 13.0721 17.2417 12.9563 17.1658L11.2063 16.0192C11.0907 15.9426 10.996 15.8385 10.9308 15.7161C10.8656 15.5937 10.832 15.457 10.833 15.3183Z"
                                                            fill="#007F61"
                                                    />
                                                </g>
                                            </svg>