<svg width="20" height="20" viewBox="0 0 20 20" fill="none" xmlns="http://www.w3.org/2000/svg">
                                                <g clip-path="url(#clip0_707_2478)">
                                                    <path
                                                            d="M14.827 6.01C14.4567 4.41774 13.5142 3.01704 12.1788 2.07415C10.8434 1.13127 9.20802 0.711932 7.58364 0.895848C5.95925 1.07976 4.45907 1.85411 3.36824 3.0717C2.2774 4.2893 1.67197 5.86525 1.66702 7.5C1.6663 8.56533 1.92364 9.61498 2.41702 10.5592C1.51796 11.041 0.805687 11.8094 0.39337 12.7423C-0.0189474 13.6753 -0.107659 14.7193 0.14133 15.7084C0.390319 16.6976 0.962726 17.5752 1.76761 18.2018C2.57249 18.8283 3.56368 19.1679 4.58369 19.1667H13.3337C14.9663 19.1591 16.5393 18.5527 17.7545 17.4625C18.9698 16.3723 19.7428 14.8741 19.9269 13.2519C20.111 11.6298 19.6935 9.99642 18.7535 8.6616C17.8135 7.32678 16.4164 6.38328 14.827 6.01ZM13.3337 17.5H4.58369C3.87404 17.5021 3.18809 17.2448 2.65495 16.7764C2.12181 16.3081 1.77826 15.661 1.68895 14.957C1.59964 14.2529 1.77074 13.5406 2.17005 12.9539C2.56935 12.3673 3.16932 11.9468 3.85702 11.7717C3.98928 11.7376 4.11115 11.6716 4.21189 11.5794C4.31264 11.4872 4.38918 11.3716 4.43478 11.2429C4.48038 11.1142 4.49364 10.9762 4.4734 10.8411C4.45315 10.7061 4.40003 10.578 4.31869 10.4683C3.67798 9.61145 3.33236 8.56993 3.33369 7.5C3.34319 6.23832 3.82934 5.02688 4.69464 4.10863C5.55993 3.19038 6.74039 2.63321 7.99929 2.54886C9.25818 2.46451 10.5024 2.85922 11.4825 3.65383C12.4625 4.44844 13.106 5.5842 13.2837 6.83333C13.3077 7.01471 13.3907 7.18316 13.5199 7.31268C13.6491 7.4422 13.8174 7.5256 13.9987 7.55C15.2477 7.7277 16.3834 8.37098 17.178 9.35087C17.9726 10.3308 18.3674 11.5748 18.2833 12.8336C18.1992 14.0924 17.6423 15.2728 16.7244 16.1382C15.8064 17.0037 14.5952 17.4901 13.3337 17.5Z"
                                                            fill="#007F61"
                                                    />
                                                </g>
                                            </svg>