<svg width="20" height="20" viewBox="0 0 20 20" fill="none" xmlns="http://www.w3.org/2000/svg">
                                                <path
                                                        d="M17.5002 10.3533V9.16666C17.5002 7.17754 16.7101 5.26989 15.3035 3.86336C13.897 2.45684 11.9894 1.66666 10.0002 1.66666C8.01112 1.66666 6.10347 2.45684 4.69694 3.86336C3.29042 5.26989 2.50024 7.17754 2.50024 9.16666V10.3533C1.62621 10.7382 0.910911 11.4116 0.474095 12.2609C0.0372792 13.1101 -0.0945389 14.0837 0.100708 15.0185C0.295956 15.9534 0.806416 16.7928 1.54664 17.3962C2.28685 17.9996 3.2119 18.3305 4.16691 18.3333C4.60894 18.3333 5.03286 18.1577 5.34542 17.8452C5.65798 17.5326 5.83358 17.1087 5.83358 16.6667V11.6667C5.83358 11.2246 5.65798 10.8007 5.34542 10.4882C5.03286 10.1756 4.60894 10 4.16691 10V9.16666C4.16691 7.61957 4.78149 6.13584 5.87545 5.04187C6.96942 3.94791 8.45315 3.33333 10.0002 3.33333C11.5473 3.33333 13.0311 3.94791 14.125 5.04187C15.219 6.13584 15.8336 7.61957 15.8336 9.16666V10C15.3916 10 14.9676 10.1756 14.6551 10.4882C14.3425 10.8007 14.1669 11.2246 14.1669 11.6667V16.6667C14.1669 17.1087 14.3425 17.5326 14.6551 17.8452C14.9676 18.1577 15.3916 18.3333 15.8336 18.3333C16.7886 18.3305 17.7136 17.9996 18.4539 17.3962C19.1941 16.7928 19.7045 15.9534 19.8998 15.0185C20.095 14.0837 19.9632 13.1101 19.5264 12.2609C19.0896 11.4116 18.3743 10.7382 17.5002 10.3533ZM4.16691 16.6667C3.50387 16.6667 2.86798 16.4033 2.39914 15.9344C1.9303 15.4656 1.66691 14.8297 1.66691 14.1667C1.66691 13.5036 1.9303 12.8677 2.39914 12.3989C2.86798 11.9301 3.50387 11.6667 4.16691 11.6667V16.6667ZM15.8336 16.6667V11.6667C16.4966 11.6667 17.1325 11.9301 17.6013 12.3989C18.0702 12.8677 18.3336 13.5036 18.3336 14.1667C18.3336 14.8297 18.0702 15.4656 17.6013 15.9344C17.1325 16.4033 16.4966 16.6667 15.8336 16.6667Z"
                                                        fill="#007F61"
                                                />
                                            </svg>