<svg width="20" height="20" viewBox="0 0 20 20" fill="none" xmlns="http://www.w3.org/2000/svg">
                                                <g clip-path="url(#clip0_707_2485)">
                                                    <path
                                                            d="M4.16667 19.1667C3.34258 19.1667 2.537 18.9223 1.85179 18.4645C1.16659 18.0066 0.632536 17.3559 0.317171 16.5945C0.00180535 15.8332 -0.0807085 14.9954 0.0800632 14.1871C0.240835 13.3789 0.637672 12.6364 1.22039 12.0537C1.80311 11.471 2.54554 11.0742 3.35379 10.9134C4.16205 10.7526 4.99982 10.8351 5.76118 11.1505C6.52254 11.4659 7.17329 11.9999 7.63112 12.6851C8.08896 13.3703 8.33333 14.1759 8.33333 15C8.33201 16.1047 7.8926 17.1637 7.11149 17.9448C6.33037 18.7259 5.27133 19.1653 4.16667 19.1667ZM4.16667 12.5C3.67222 12.5 3.18887 12.6466 2.77774 12.9213C2.36662 13.196 2.04619 13.5865 1.85697 14.0433C1.66775 14.5001 1.61824 15.0028 1.71471 15.4877C1.81117 15.9727 2.04927 16.4181 2.3989 16.7678C2.74853 17.1174 3.19399 17.3555 3.67894 17.452C4.1639 17.5484 4.66656 17.4989 5.12338 17.3097C5.58019 17.1205 5.97064 16.8 6.24534 16.3889C6.52005 15.9778 6.66667 15.4944 6.66667 15C6.66667 14.337 6.40328 13.7011 5.93444 13.2322C5.46559 12.7634 4.82971 12.5 4.16667 12.5ZM15.8333 19.1667C15.0092 19.1667 14.2037 18.9223 13.5185 18.4645C12.8333 18.0066 12.2992 17.3559 11.9838 16.5945C11.6685 15.8332 11.586 14.9954 11.7467 14.1871C11.9075 13.3789 12.3043 12.6364 12.8871 12.0537C13.4698 11.471 14.2122 11.0742 15.0205 10.9134C15.8287 10.7526 16.6665 10.8351 17.4279 11.1505C18.1892 11.4659 18.84 11.9999 19.2978 12.6851C19.7556 13.3703 20 14.1759 20 15C19.9987 16.1047 19.5593 17.1637 18.7782 17.9448C17.997 18.7259 16.938 19.1653 15.8333 19.1667ZM15.8333 12.5C15.3389 12.5 14.8555 12.6466 14.4444 12.9213C14.0333 13.196 13.7129 13.5865 13.5236 14.0433C13.3344 14.5001 13.2849 15.0028 13.3814 15.4877C13.4778 15.9727 13.7159 16.4181 14.0656 16.7678C14.4152 17.1174 14.8607 17.3555 15.3456 17.452C15.8306 17.5484 16.3332 17.4989 16.79 17.3097C17.2469 17.1205 17.6373 16.8 17.912 16.3889C18.1867 15.9778 18.3333 15.4944 18.3333 15C18.3333 14.337 18.0699 13.7011 17.6011 13.2322C17.1323 12.7634 16.4964 12.5 15.8333 12.5ZM10.8333 15V11.6667C10.8332 11.5466 10.8072 11.4281 10.757 11.319C10.7068 11.21 10.6336 11.1131 10.5425 11.035L8.6375 9.3975C8.54755 9.32116 8.47508 9.22635 8.42504 9.11951C8.375 9.01267 8.34855 8.8963 8.3475 8.77833C8.34371 8.66941 8.36198 8.56085 8.40122 8.45917C8.44046 8.35749 8.49986 8.2648 8.57584 8.18666L10.2117 6.885C10.3761 6.73637 10.5926 6.65882 10.814 6.66928C11.0354 6.67974 11.2437 6.77736 11.3933 6.94083L13.56 8.94083C13.714 9.08331 13.916 9.16246 14.1258 9.1625H16.6667C16.8877 9.1625 17.0996 9.0747 17.2559 8.91842C17.4122 8.76214 17.5 8.55018 17.5 8.32916C17.5 8.10815 17.4122 7.89619 17.2559 7.73991C17.0996 7.58363 16.8877 7.49583 16.6667 7.49583H14.45L12.5525 5.74333C12.1081 5.2861 11.5046 5.01778 10.8675 4.99419C10.2303 4.97059 9.60862 5.19354 9.13167 5.61666L7.495 6.91666C7.23374 7.15522 7.02609 7.44651 6.88577 7.77129C6.74546 8.09606 6.67567 8.44692 6.68103 8.80067C6.68638 9.15441 6.76676 9.503 6.91685 9.82337C7.06693 10.1438 7.28331 10.4286 7.55167 10.6592L9.16667 12.0492V15C9.16667 15.221 9.25447 15.433 9.41075 15.5893C9.56703 15.7455 9.77899 15.8333 10 15.8333C10.221 15.8333 10.433 15.7455 10.5893 15.5893C10.7455 15.433 10.8333 15.221 10.8333 15ZM13.75 0.833328C13.338 0.833328 12.9352 0.955514 12.5926 1.18443C12.25 1.41335 11.9829 1.73873 11.8253 2.1194C11.6676 2.50008 11.6263 2.91897 11.7067 3.3231C11.7871 3.72723 11.9855 4.09844 12.2769 4.3898C12.5682 4.68116 12.9394 4.87958 13.3436 4.95996C13.7477 5.04035 14.1666 4.99909 14.5473 4.84141C14.9279 4.68373 15.2533 4.4167 15.4822 4.0741C15.7112 3.7315 15.8333 3.32871 15.8333 2.91666C15.8333 2.36413 15.6138 1.83422 15.2231 1.44352C14.8324 1.05282 14.3025 0.833328 13.75 0.833328Z"
                                                            fill="#007F61"
                                                    />
                                                </g>
                                            </svg>