<svg width="20" height="20" viewBox="0 0 20 20" fill="none" xmlns="http://www.w3.org/2000/svg">
                                                <g clip-path="url(#clip0_707_2538)">
                                                    <path
                                                            d="M1.66667 11.6667C2.58714 11.6667 3.33333 10.9205 3.33333 9.99999C3.33333 9.07952 2.58714 8.33333 1.66667 8.33333C0.746192 8.33333 0 9.07952 0 9.99999C0 10.9205 0.746192 11.6667 1.66667 11.6667Z"
                                                            fill="#007F61"
                                                    />
                                                    <path
                                                            d="M9.99967 11.6667C10.9201 11.6667 11.6663 10.9205 11.6663 9.99999C11.6663 9.07952 10.9201 8.33333 9.99967 8.33333C9.0792 8.33333 8.33301 9.07952 8.33301 9.99999C8.33301 10.9205 9.0792 11.6667 9.99967 11.6667Z"
                                                            fill="#007F61"
                                                    />
                                                    <path
                                                            d="M18.3337 11.6667C19.2541 11.6667 20.0003 10.9205 20.0003 9.99999C20.0003 9.07952 19.2541 8.33333 18.3337 8.33333C17.4132 8.33333 16.667 9.07952 16.667 9.99999C16.667 10.9205 17.4132 11.6667 18.3337 11.6667Z"
                                                            fill="#007F61"
                                                    />
                                                </g>
                                            </svg>