<svg width="20" height="20" viewBox="0 0 20 20" fill="none" xmlns="http://www.w3.org/2000/svg">
                                                <g clip-path="url(#clip0_705_1108)">
                                                    <path
                                                            d="M1.56594 14.8984C0.84192 15.8981 0.322273 17.0308 0.0367782 18.2317C-0.0177567 18.4708 -0.0107298 18.7198 0.0572011 18.9554C0.125132 19.1911 0.251745 19.4056 0.425186 19.579C0.598626 19.7523 0.813222 19.8788 1.04888 19.9466C1.28454 20.0145 1.53356 20.0214 1.77261 19.9667C2.97165 19.6808 4.10262 19.1614 5.10094 18.4384C5.57038 17.9696 5.83437 17.3336 5.83484 16.6701C5.8353 16.0067 5.57222 15.3703 5.10345 14.9009C4.63468 14.4314 3.99862 14.1675 3.33521 14.167C2.6718 14.1665 2.03538 14.4296 1.56594 14.8984ZM3.92261 17.2559C3.25095 17.6861 2.52139 18.0183 1.75595 18.2425C1.98051 17.4772 2.31272 16.7477 2.74261 16.0759C2.89978 15.9241 3.11028 15.8401 3.32878 15.842C3.54728 15.8439 3.75629 15.9315 3.91079 16.086C4.0653 16.2405 4.15294 16.4495 4.15484 16.668C4.15674 16.8865 4.07274 17.097 3.92094 17.2542L3.92261 17.2559ZM15.0001 7.08338C15.0001 7.63591 14.7806 8.16582 14.3899 8.55652C13.9992 8.94722 13.4693 9.16671 12.9168 9.16671C12.3642 9.16671 11.8343 8.94722 11.4436 8.55652C11.0529 8.16582 10.8334 7.63591 10.8334 7.08338C10.8334 6.53084 11.0529 6.00094 11.4436 5.61024C11.8343 5.21954 12.3642 5.00005 12.9168 5.00005C13.4693 5.00005 13.9992 5.21954 14.3899 5.61024C14.7806 6.00094 15.0001 6.53084 15.0001 7.08338ZM17.4768 4.49579e-05C15.4937 -0.0117439 13.5345 0.433651 11.7514 1.30165C9.96825 2.16965 8.40915 3.43691 7.19511 5.00505C5.87106 5.05082 4.57242 5.38138 3.38761 5.97421C2.01363 6.6069 0.891979 7.68277 0.202612 9.02921C0.040836 9.40485 -0.0248302 9.81487 0.0115423 10.2222C0.0479148 10.6296 0.185181 11.0215 0.410945 11.3625C0.638864 11.7119 0.950351 11.9989 1.31719 12.1976C1.68402 12.3962 2.09462 12.5002 2.51178 12.5H4.58345C5.35585 12.5038 6.09555 12.8123 6.64172 13.3584C7.1879 13.9046 7.49639 14.6443 7.50011 15.4167V17.4884C7.49982 17.9054 7.60353 18.3159 7.80186 18.6827C8.00018 19.0495 8.28686 19.3611 8.63595 19.5892C8.97698 19.815 9.36888 19.9522 9.77625 19.9886C10.1836 20.025 10.5936 19.9593 10.9693 19.7975C12.3157 19.1082 13.3916 17.9865 14.0243 16.6125C14.6171 15.4277 14.9477 14.1291 14.9934 12.805C16.5641 11.5879 17.8329 10.025 18.7012 8.23772C19.5695 6.45046 20.014 4.48703 20.0001 2.50005C19.9991 2.17005 19.933 1.8435 19.8056 1.5391C19.6781 1.23471 19.4919 0.958464 19.2574 0.726208C19.023 0.493952 18.7451 0.310252 18.4395 0.185641C18.1339 0.0610307 17.8068 -0.00204022 17.4768 4.49579e-05ZM3.62178 10.8334H2.51178C2.37086 10.8345 2.23197 10.7998 2.10809 10.7326C1.98421 10.6654 1.8794 10.5679 1.80344 10.4492C1.72883 10.339 1.68322 10.2117 1.67084 10.0791C1.65846 9.94657 1.67971 9.81304 1.73261 9.69088C2.26957 8.70681 3.11315 7.92497 4.13511 7.46421C4.66314 7.19946 5.22062 6.99806 5.79595 6.86421C4.96764 8.12784 4.24065 9.45503 3.62178 10.8334ZM12.5384 15.865C12.0777 16.8867 11.2962 17.7302 10.3126 18.2675C10.1903 18.3205 10.0566 18.3418 9.92395 18.3294C9.79125 18.317 9.66382 18.2714 9.55344 18.1967C9.43474 18.1208 9.33724 18.0159 9.27005 17.8921C9.20287 17.7682 9.1682 17.6293 9.16928 17.4884V16.3784C10.5476 15.7595 11.8748 15.0325 13.1384 14.2042C13.0038 14.7796 12.8016 15.3371 12.5359 15.865H12.5384ZM12.6509 12.515C11.5233 13.2983 10.3328 13.987 9.09178 14.5742C8.92231 13.6643 8.48132 12.827 7.82683 12.1725C7.17235 11.518 6.33505 11.077 5.42511 10.9075C6.01277 9.6676 6.70177 8.47829 7.48511 7.35171C10.2918 3.43671 13.2001 1.78921 17.5001 1.66671C17.7171 1.66663 17.9256 1.75121 18.0813 1.90248C18.2369 2.05375 18.3274 2.25977 18.3334 2.47671C18.2109 6.80005 16.5634 9.70838 12.6484 12.515H12.6509Z"
                                                            fill="#007F61"
                                                    />
                                                </g>
                                            </svg>