<svg width="20" height="20" viewBox="0 0 20 20" fill="none" xmlns="http://www.w3.org/2000/svg">
                                                <g clip-path="url(#clip0_705_1202)">
                                                    <path
                                                            d="M14.1665 11.6667C14.1665 11.8877 14.0787 12.0996 13.9224 12.2559C13.7661 12.4122 13.5542 12.5 13.3332 12.5H6.6665C6.44549 12.5 6.23353 12.4122 6.07725 12.2559C5.92097 12.0996 5.83317 11.8877 5.83317 11.6667C5.83317 11.4456 5.92097 11.2337 6.07725 11.0774C6.23353 10.9211 6.44549 10.8333 6.6665 10.8333H13.3332C13.5542 10.8333 13.7661 10.9211 13.9224 11.0774C14.0787 11.2337 14.1665 11.4456 14.1665 11.6667ZM10.8332 14.1667H6.6665C6.44549 14.1667 6.23353 14.2545 6.07725 14.4107C5.92097 14.567 5.83317 14.779 5.83317 15C5.83317 15.221 5.92097 15.433 6.07725 15.5892C6.23353 15.7455 6.44549 15.8333 6.6665 15.8333H10.8332C11.0542 15.8333 11.2661 15.7455 11.4224 15.5892C11.5787 15.433 11.6665 15.221 11.6665 15C11.6665 14.779 11.5787 14.567 11.4224 14.4107C11.2661 14.2545 11.0542 14.1667 10.8332 14.1667ZM18.3332 8.73749V15.8333C18.3318 16.938 17.8924 17.997 17.1113 18.7781C16.3302 19.5593 15.2712 19.9987 14.1665 20H5.83317C4.72851 19.9987 3.66947 19.5593 2.88835 18.7781C2.10724 17.997 1.66783 16.938 1.6665 15.8333V4.16666C1.66783 3.06199 2.10724 2.00295 2.88835 1.22184C3.66947 0.440724 4.72851 0.0013119 5.83317 -1.13103e-05H9.59567C10.362 -0.00198375 11.1212 0.147978 11.8292 0.441205C12.5372 0.734431 13.1801 1.1651 13.7207 1.70832L16.624 4.61332C17.1675 5.15352 17.5985 5.7962 17.8919 6.50413C18.1852 7.21206 18.3352 7.97117 18.3332 8.73749ZM12.5423 2.88666C12.2801 2.63262 11.9856 2.41409 11.6665 2.23666V5.83332C11.6665 6.05434 11.7543 6.2663 11.9106 6.42258C12.0669 6.57886 12.2788 6.66666 12.4998 6.66666H16.0965C15.919 6.34765 15.7001 6.05344 15.4457 5.79166L12.5423 2.88666ZM16.6665 8.73749C16.6665 8.59999 16.6398 8.46832 16.6273 8.33332H12.4998C11.8368 8.33332 11.2009 8.06993 10.7321 7.60109C10.2632 7.13225 9.99984 6.49636 9.99984 5.83332V1.70582C9.86484 1.69332 9.73234 1.66666 9.59567 1.66666H5.83317C5.17013 1.66666 4.53424 1.93005 4.0654 2.39889C3.59656 2.86773 3.33317 3.50361 3.33317 4.16666V15.8333C3.33317 16.4964 3.59656 17.1322 4.0654 17.6011C4.53424 18.0699 5.17013 18.3333 5.83317 18.3333H14.1665C14.8295 18.3333 15.4654 18.0699 15.9343 17.6011C16.4031 17.1322 16.6665 16.4964 16.6665 15.8333V8.73749Z"
                                                            fill="white"
                                                    />
                                                </g>
                                            </svg>