<svg width="20" height="20" viewBox="0 0 20 20" fill="none" xmlns="http://www.w3.org/2000/svg">
                                                <g clip-path="url(#clip0_705_1229)">
                                                    <path
                                                            d="M15.8333 1.66666H4.16667C1.86667 1.66666 0 3.53332 0 5.83332V14.1667C0 16.4667 1.86667 18.3333 4.16667 18.3333H15.8333C18.1333 18.3333 20 16.4667 20 14.1667V5.83332C20 3.53332 18.1333 1.66666 15.8333 1.66666ZM4.16667 3.33332H15.8333C17.2083 3.33332 18.3333 4.45832 18.3333 5.83332H1.66667C1.66667 4.45832 2.79167 3.33332 4.16667 3.33332ZM15.8333 16.6667H4.16667C2.79167 16.6667 1.66667 15.5417 1.66667 14.1667V7.49999H18.3333V14.1667C18.3333 15.5417 17.2083 16.6667 15.8333 16.6667ZM8.33333 9.99999C8.33333 10.4583 7.95833 10.8333 7.5 10.8333H6.66667V14.1667C6.66667 14.625 6.29167 15 5.83333 15C5.375 15 5 14.625 5 14.1667V10.8333H4.16667C3.70833 10.8333 3.33333 10.4583 3.33333 9.99999C3.33333 9.54166 3.70833 9.16666 4.16667 9.16666H7.5C7.95833 9.16666 8.33333 9.54166 8.33333 9.99999ZM16.6667 9.99999C16.6667 10.4583 16.2917 10.8333 15.8333 10.8333H10.8333C10.375 10.8333 10 10.4583 10 9.99999C10 9.54166 10.375 9.16666 10.8333 9.16666H15.8333C16.2917 9.16666 16.6667 9.54166 16.6667 9.99999ZM16.6667 13.3333C16.6667 13.7917 16.2917 14.1667 15.8333 14.1667H10.8333C10.375 14.1667 10 13.7917 10 13.3333C10 12.875 10.375 12.5 10.8333 12.5H15.8333C16.2917 12.5 16.6667 12.875 16.6667 13.3333Z"
                                                            fill="#007F61"
                                                    />
                                                </g>
                                            </svg>