<svg width="20" height="20" viewBox="0 0 20 20" fill="none" xmlns="http://www.w3.org/2000/svg">
                                                <g clip-path="url(#clip0_705_1207)">
                                                    <path
                                                            d="M8.52844 8.55567C9.33927 9.34984 10.6609 9.349 11.4709 8.55567C12.6926 7.41484 14.2901 6.009 14.1659 4.1665C14.2126 1.9265 12.2384 -0.0459962 9.99927 -0.000162858C7.7601 -0.0459962 5.78594 1.9265 5.8326 4.1665C5.70594 5.99567 7.3076 7.41817 8.5276 8.55567H8.52844ZM8.2326 2.399C8.70427 1.9265 9.3326 1.6665 10.0001 1.6665C11.3434 1.639 12.5276 2.82234 12.5001 4.1665C12.6209 5.47234 11.0901 6.54234 10.3059 7.364C10.1368 7.529 9.86344 7.529 9.69427 7.364C8.90677 6.53984 7.38177 5.46734 7.5001 4.1665C7.5001 3.49817 7.7601 2.87067 8.2326 2.399ZM8.7501 4.1665C8.7501 3.4765 9.3101 2.9165 10.0001 2.9165C10.6901 2.9165 11.2501 3.4765 11.2501 4.1665C11.2501 4.8565 10.6901 5.4165 10.0001 5.4165C9.3101 5.4165 8.7501 4.8565 8.7501 4.1665ZM10.0001 10.8332C10.4609 10.8332 10.8334 11.2057 10.8334 11.6665V13.3332C10.8334 13.794 10.4609 14.1665 10.0001 14.1665C9.53927 14.1665 9.16677 13.794 9.16677 13.3332V11.6665C9.16677 11.2057 9.53927 10.8332 10.0001 10.8332ZM19.0234 18.5123C18.2301 19.4582 17.0668 19.9998 15.8326 19.9998H4.1676C2.93427 19.9998 1.77177 19.4582 0.978437 18.514C0.18427 17.569 -0.149896 16.3307 0.0626037 15.1157L1.2301 8.44817C1.48344 6.999 2.4976 5.77817 3.8751 5.26317C4.30927 5.1015 4.78677 5.32067 4.9476 5.7515C5.10844 6.18234 4.8901 6.66234 4.45927 6.824C3.6326 7.13317 3.02344 7.86567 2.8726 8.73484L1.70594 15.4023C1.57844 16.1307 1.77844 16.8748 2.25427 17.4407C2.73094 18.0082 3.42844 18.3323 4.16844 18.3323H9.1676V16.6657C9.1676 16.2048 9.5401 15.8323 10.0009 15.8323C10.4618 15.8323 10.8343 16.2048 10.8343 16.6657V18.3323H15.8334C16.5743 18.3323 17.2726 18.0065 17.7484 17.4398C18.2243 16.8732 18.4243 16.129 18.2951 15.399L17.1226 8.73317C16.9701 7.8665 16.3643 7.13567 15.5409 6.82567C15.1101 6.66317 14.8926 6.18317 15.0551 5.75234C15.2168 5.32067 15.6976 5.10484 16.1284 5.26567C17.5001 5.78234 18.5101 7.00067 18.7651 8.444L19.9376 15.1107C20.1509 16.3265 19.8184 17.5657 19.0243 18.5115L19.0234 18.5123Z"
                                                            fill="#007F61"
                                                    />
                                                </g>
                                            </svg>