<svg width="20" height="20" viewBox="0 0 20 20" fill="none" xmlns="http://www.w3.org/2000/svg">
                                                <g clip-path="url(#clip0_705_1235)">
                                                    <path
                                                            d="M10 1.66667C11.1054 1.67029 12.1992 1.89312 13.2179 2.32224C14.2366 2.75136 15.1602 3.37827 15.935 4.16667H13.3333C13.1123 4.16667 12.9004 4.25447 12.7441 4.41075C12.5878 4.56703 12.5 4.77899 12.5 5C12.5 5.22101 12.5878 5.43298 12.7441 5.58926C12.9004 5.74554 13.1123 5.83333 13.3333 5.83333H16.7858C17.1962 5.83311 17.5897 5.67 17.8798 5.37984C18.17 5.08967 18.3331 4.69619 18.3333 4.28583V0.833334C18.3333 0.612321 18.2455 0.400359 18.0893 0.244079C17.933 0.0877985 17.721 1.08837e-06 17.5 1.08837e-06C17.279 1.08837e-06 17.067 0.0877985 16.9107 0.244079C16.7545 0.400359 16.6667 0.612321 16.6667 0.833334V2.565C15.2893 1.32455 13.5938 0.492009 11.7701 0.160625C9.94635 -0.170759 8.06636 0.0120944 6.34066 0.688707C4.61496 1.36532 3.11169 2.50898 1.99918 3.9916C0.886679 5.47423 0.208874 7.23729 0.0416727 9.08333C0.0309088 9.19938 0.0444358 9.3164 0.0813918 9.42693C0.118348 9.53746 0.177922 9.63909 0.25632 9.72532C0.334717 9.81156 0.430218 9.88052 0.536738 9.92781C0.643258 9.9751 0.75846 9.99969 0.875006 10C1.07883 10.0026 1.27628 9.92903 1.42872 9.79371C1.58116 9.65838 1.6776 9.47103 1.69917 9.26833C1.88468 7.19396 2.83915 5.26392 4.37507 3.85737C5.911 2.45081 7.91735 1.66941 10 1.66667Z"
                                                            fill="#007F61"
                                                    />
                                                    <path
                                                            d="M19.1257 10C18.9218 9.99741 18.7244 10.071 18.572 10.2063C18.4195 10.3416 18.3231 10.529 18.3015 10.7317C18.1637 12.3177 17.5739 13.8309 16.602 15.0918C15.6302 16.3528 14.317 17.3084 12.8183 17.8455C11.3196 18.3825 9.69833 18.4784 8.1468 18.1218C6.59526 17.7651 5.17858 16.9709 4.06484 15.8333H6.6665C6.88752 15.8333 7.09948 15.7455 7.25576 15.5893C7.41204 15.433 7.49984 15.221 7.49984 15C7.49984 14.779 7.41204 14.567 7.25576 14.4107C7.09948 14.2545 6.88752 14.1667 6.6665 14.1667H3.214C3.01075 14.1666 2.80947 14.2065 2.62167 14.2842C2.43387 14.362 2.26323 14.476 2.11951 14.6197C1.97579 14.7634 1.86181 14.934 1.78408 15.1218C1.70635 15.3096 1.66639 15.5109 1.6665 15.7142V19.1667C1.6665 19.3877 1.7543 19.5996 1.91058 19.7559C2.06686 19.9122 2.27882 20 2.49984 20C2.72085 20 2.93281 19.9122 3.08909 19.7559C3.24537 19.5996 3.33317 19.3877 3.33317 19.1667V17.435C4.71053 18.6755 6.40601 19.508 8.22976 19.8394C10.0535 20.1708 11.9335 19.9879 13.6592 19.3113C15.3849 18.6347 16.8882 17.491 18.0007 16.0084C19.1132 14.5258 19.791 12.7627 19.9582 10.9167C19.9689 10.8006 19.9554 10.6836 19.9184 10.5731C19.8815 10.4625 19.8219 10.3609 19.7435 10.2747C19.6651 10.1884 19.5696 10.1195 19.4631 10.0722C19.3566 10.0249 19.2422 10.0003 19.1257 10Z"
                                                            fill="#007F61"
                                                    />
                                                </g>
                                            </svg>