<svg width="20" height="20" viewBox="0 0 20 20" fill="none" xmlns="http://www.w3.org/2000/svg">
                                                <g clip-path="url(#clip0_705_1215)">
                                                    <path
                                                            d="M2.49991 2.5C2.49991 1.57917 3.24574 0.833333 4.16658 0.833333C5.08741 0.833333 5.83324 1.57917 5.83324 2.5C5.83324 3.42083 5.08741 4.16667 4.16658 4.16667C3.24574 4.16667 2.49991 3.42083 2.49991 2.5ZM9.99991 4.16667C11.1507 4.16667 12.0832 3.23417 12.0832 2.08333C12.0832 0.9325 11.1507 0 9.99991 0C8.84908 0 7.91658 0.9325 7.91658 2.08333C7.91658 3.23417 8.84908 4.16667 9.99991 4.16667ZM15.8332 4.16667C16.7541 4.16667 17.4999 3.42083 17.4999 2.5C17.4999 1.57917 16.7541 0.833333 15.8332 0.833333C14.9124 0.833333 14.1666 1.57917 14.1666 2.5C14.1666 3.42083 14.9124 4.16667 15.8332 4.16667ZM10.0007 20C4.79074 20 0.509909 16.0908 0.0424095 10.9083C0.00157614 10.45 0.339076 10.045 0.797409 10.0033C1.26658 9.96333 1.66158 10.3 1.70241 10.7583C1.75658 11.3625 1.87991 11.9433 2.05158 12.5H4.91824C4.78574 11.9867 4.68241 11.4592 4.62908 10.9142C4.58408 10.4558 4.91991 10.0483 5.37741 10.0042C5.83824 9.9625 6.24324 10.295 6.28741 10.7525C6.34574 11.3542 6.47658 11.9375 6.64908 12.5H13.3524C13.5249 11.9375 13.6557 11.3542 13.7141 10.7525C13.7582 10.2942 14.1641 9.96167 14.6241 10.0042C15.0824 10.0483 15.4174 10.4558 15.3724 10.9142C15.3199 11.4592 15.2157 11.9867 15.0832 12.5H17.9499C18.1224 11.9433 18.2449 11.3625 18.2991 10.7583C18.3407 10.3 18.7374 9.96167 19.2041 10.0033C19.6624 10.045 20.0007 10.45 19.9591 10.9083C19.4916 16.0908 15.2107 19.9992 10.0007 20ZM7.31491 14.1667C8.16741 15.8992 9.32241 17.2692 9.99908 17.9883C10.6766 17.2692 11.8307 15.8992 12.6832 14.1667H7.31491ZM7.83741 18.0475C7.05074 17.0733 6.13991 15.74 5.47991 14.1667H2.77658C3.86658 16.0692 5.67658 17.4767 7.83741 18.0475ZM17.2232 14.1667H14.5199C13.8599 15.7408 12.9491 17.0733 12.1624 18.0475C14.3232 17.4767 16.1332 16.0692 17.2232 14.1667ZM7.20741 8.28083C7.63908 8.44167 8.11908 8.225 8.28074 7.7925C8.53324 7.11917 9.22408 6.66667 9.99991 6.66667C10.7757 6.66667 11.4674 7.11917 11.7191 7.7925C11.8799 8.22917 12.3724 8.44 12.7924 8.28083C13.2232 8.11917 13.4416 7.63833 13.2799 7.20833C12.7849 5.8875 11.4666 5.00083 9.99908 5.00083C8.53158 5.00083 7.21324 5.8875 6.71824 7.20833C6.55658 7.63917 6.77491 8.11917 7.20574 8.28083H7.20741ZM15.2932 5.04C14.8382 5.10833 14.5241 5.5325 14.5924 5.98833C14.6607 6.44333 15.0832 6.75083 15.5399 6.68917C16.3824 6.56417 17.2682 7.03333 17.5532 7.7925C17.7141 8.22917 18.2066 8.44 18.6266 8.28083C19.0574 8.11917 19.2757 7.63833 19.1141 7.20833C18.6191 5.8875 17.3007 5.00083 15.8332 5.00083C15.6499 5.00083 15.4691 5.01417 15.2932 5.04ZM1.37408 8.28083C1.79408 8.44083 2.28574 8.22917 2.44741 7.7925C2.73158 7.0325 3.61824 6.56 4.46074 6.68917C4.91574 6.75167 5.33991 6.44333 5.40824 5.98833C5.47658 5.5325 5.16324 5.10833 4.70741 5.04C4.53158 5.01417 4.35074 5 4.16741 5C2.69991 5 1.38158 5.88667 0.886576 7.2075C0.724909 7.63833 0.943243 8.11833 1.37408 8.28V8.28083Z"
                                                            fill="#007F61"
                                                    />
                                                </g>
                                            </svg>