<svg width="20" height="20" viewBox="0 0 20 20" fill="none" xmlns="http://www.w3.org/2000/svg">
                                                <g clip-path="url(#clip0_707_2441)">
                                                    <path
                                                            d="M18.337 3.74832C18.3379 3.02749 17.8995 2.40666 17.2204 2.16666L11.8329 0.265824C10.6762 -0.143342 9.40285 -0.144176 8.24702 0.260824L2.79452 2.16916C2.11285 2.40749 1.67285 3.02749 1.67285 3.74916C1.67285 4.47166 2.11368 5.09166 2.79535 5.32916L5.00035 6.09832V7.49999C5.00035 10.2575 7.24285 12.5 10.0004 12.5C12.7579 12.5 15.0004 10.2575 15.0004 7.49999V6.09832L16.667 5.51666V9.16582C16.667 9.62582 17.0404 9.99916 17.5004 9.99916C17.9604 9.99916 18.3337 9.62582 18.3337 9.16582V3.76832C18.3337 3.76082 18.337 3.75582 18.337 3.74832ZM13.3337 7.49999C13.3337 9.33832 11.8387 10.8333 10.0004 10.8333C8.16202 10.8333 6.66702 9.33832 6.66702 7.49999V6.67999L8.21785 7.22082C8.79202 7.42082 9.39618 7.52166 9.99952 7.52166C10.6029 7.52166 11.2062 7.42082 11.7804 7.22082L13.3337 6.67916V7.49916V7.49999ZM11.232 5.64749C10.4379 5.92499 9.56202 5.92499 8.76785 5.64749L3.34535 3.74166L8.79868 1.83332C9.19702 1.69416 9.61452 1.62416 10.0337 1.62416C10.4554 1.62416 10.877 1.69499 11.2787 1.83666L16.6662 3.75166L11.232 5.64749ZM16.6304 18.9192C16.767 19.3583 16.5212 19.8258 16.082 19.9625C15.9995 19.9883 15.9162 20 15.8345 20C15.4795 20 15.1504 19.7708 15.0387 19.4133C14.3829 17.305 12.312 15.8325 10.0012 15.8325C7.69035 15.8325 5.61952 17.305 4.96368 19.4133C4.82702 19.8533 4.35702 20.0975 3.92035 19.9617C3.48118 19.825 3.23535 19.3575 3.37202 18.9183C4.24202 16.12 6.96785 14.1658 10.0012 14.1658C13.0345 14.1658 15.7604 16.1208 16.6304 18.9192Z"
                                                            fill="#007F61"
                                                    />
                                                </g>
                                            </svg>
                                            