<svg width="20" height="14" viewBox="0 0 20 14" fill="none" xmlns="http://www.w3.org/2000/svg">
                                                <path
                                                        d="M19.4552 2.23331C19.228 1.38329 18.5584 0.713716 17.7084 0.486501C16.1677 0.0735625 9.98926 0.0735626 9.98926 0.0735626C9.98926 0.0735626 3.81077 0.0735625 2.2701 0.486501C1.42008 0.713716 0.750505 1.38329 0.52329 2.23331C0.110352 3.77398 0.110352 6.9888 0.110352 6.9888C0.110352 6.9888 0.110352 10.2036 0.52329 11.7443C0.750505 12.5943 1.42008 13.2639 2.2701 13.4911C3.81077 13.904 9.98926 13.904 9.98926 13.904C9.98926 13.904 16.1677 13.904 17.7084 13.4911C18.5584 13.2639 19.228 12.5943 19.4552 11.7443C19.8682 10.2036 19.8682 6.9888 19.8682 6.9888C19.8682 6.9888 19.8682 3.77398 19.4552 2.23331ZM8.01348 9.95247V4.02513L13.1466 6.9888L8.01348 9.95247Z"
                                                        fill="#007F61"
                                                />
                                            </svg>