<svg width="20" height="20" viewBox="0 0 20 20" fill="none" xmlns="http://www.w3.org/2000/svg">
                                                <path
                                                        d="M18.3332 12.6533V6.66667C18.3319 5.562 17.8925 4.50296 17.1114 3.72185C16.3302 2.94073 15.2712 2.50132 14.1665 2.5H5.83321C4.72855 2.50132 3.66951 2.94073 2.88839 3.72185C2.10728 4.50296 1.66786 5.562 1.66654 6.66667V12.6533C1.11097 12.849 0.642587 13.235 0.344342 13.7429C0.046097 14.2509 -0.06276 14.848 0.0370517 15.4285C0.136863 16.009 0.438902 16.5354 0.889672 16.9146C1.34044 17.2937 1.91085 17.5011 2.49987 17.5H17.4999C18.0889 17.5011 18.6593 17.2937 19.1101 16.9146C19.5608 16.5354 19.8629 16.009 19.9627 15.4285C20.0625 14.848 19.9537 14.2509 19.6554 13.7429C19.3572 13.235 18.8888 12.849 18.3332 12.6533ZM5.83321 4.16667H14.1665C14.8296 4.16667 15.4655 4.43006 15.9343 4.8989C16.4031 5.36774 16.6665 6.00363 16.6665 6.66667V12.5H13.2074C12.965 12.4998 12.7255 12.5525 12.5056 12.6544C12.2857 12.7563 12.0906 12.905 11.934 13.09L11.7282 13.3333H8.27071L8.06571 13.09C7.90913 12.905 7.71409 12.7563 7.49417 12.6544C7.27425 12.5525 7.03475 12.4998 6.79237 12.5H3.33321V6.66667C3.33321 6.00363 3.5966 5.36774 4.06544 4.8989C4.53428 4.43006 5.17017 4.16667 5.83321 4.16667ZM17.4999 15.8333H2.49987C2.27886 15.8333 2.0669 15.7455 1.91062 15.5893C1.75434 15.433 1.66654 15.221 1.66654 15C1.66654 14.779 1.75434 14.567 1.91062 14.4107C2.0669 14.2545 2.27886 14.1667 2.49987 14.1667H6.79321L6.99821 14.41C7.15469 14.5949 7.34961 14.7435 7.56937 14.8454C7.78913 14.9473 8.02847 15 8.27071 15H11.7282C11.9706 15.0002 12.2101 14.9475 12.43 14.8456C12.6499 14.7437 12.845 14.595 13.0015 14.41L13.2074 14.1667H17.4999C17.7209 14.1667 17.9328 14.2545 18.0891 14.4107C18.2454 14.567 18.3332 14.779 18.3332 15C18.3332 15.221 18.2454 15.433 18.0891 15.5893C17.9328 15.7455 17.7209 15.8333 17.4999 15.8333Z"
                                                        fill="#007F61"
                                                />
                                            </svg>