<svg width="20" height="20" viewBox="0 0 20 20" fill="none" xmlns="http://www.w3.org/2000/svg">
                                                <g clip-path="url(#clip0_707_2507)">
                                                    <path
                                                            d="M20 8.3334C20 8.27257 19.9933 8.21192 19.98 8.15257L18.8967 3.26257C18.6954 2.33444 18.1811 1.50372 17.4401 0.909721C16.6991 0.315721 15.7764 -0.00544699 14.8267 6.99074e-05H5.17334C4.22421 -0.00468034 3.30228 0.316838 2.56194 0.910775C1.82161 1.50471 1.30783 2.335 1.10667 3.26257L0.0200011 8.15257C0.00667456 8.21192 -3.30499e-05 8.27257 1.14116e-06 8.3334V9.16674C-0.000671198 9.97807 0.295769 10.7616 0.833334 11.3692V15.8334C0.834658 16.9381 1.27407 17.9971 2.05518 18.7782C2.8363 19.5593 3.89534 19.9987 5 20.0001H15C16.1047 19.9987 17.1637 19.5593 17.9448 18.7782C18.7259 17.9971 19.1653 16.9381 19.1667 15.8334V11.3692C19.7042 10.7616 20.0007 9.97807 20 9.16674V8.3334ZM1.66667 8.42424L2.73333 3.62424C2.8542 3.06778 3.16252 2.56972 3.60668 2.21338C4.05084 1.85705 4.60391 1.66407 5.17334 1.66674H5.83333V4.16674C5.83333 4.38775 5.92113 4.59971 6.07741 4.75599C6.23369 4.91227 6.44565 5.00007 6.66667 5.00007C6.88768 5.00007 7.09964 4.91227 7.25592 4.75599C7.4122 4.59971 7.5 4.38775 7.5 4.16674V1.66674H12.5V4.16674C12.5 4.38775 12.5878 4.59971 12.7441 4.75599C12.9004 4.91227 13.1123 5.00007 13.3333 5.00007C13.5543 5.00007 13.7663 4.91227 13.9226 4.75599C14.0789 4.59971 14.1667 4.38775 14.1667 4.16674V1.66674H14.8267C15.3961 1.66407 15.9492 1.85705 16.3933 2.21338C16.8375 2.56972 17.1458 3.06778 17.2667 3.62424L18.3333 8.42424V9.16674C18.3333 9.60877 18.1577 10.0327 17.8452 10.3452C17.5326 10.6578 17.1087 10.8334 16.6667 10.8334H15.8333C15.3913 10.8334 14.9674 10.6578 14.6548 10.3452C14.3423 10.0327 14.1667 9.60877 14.1667 9.16674C14.1667 8.94572 14.0789 8.73376 13.9226 8.57748C13.7663 8.4212 13.5543 8.3334 13.3333 8.3334C13.1123 8.3334 12.9004 8.4212 12.7441 8.57748C12.5878 8.73376 12.5 8.94572 12.5 9.16674C12.5 9.60877 12.3244 10.0327 12.0118 10.3452C11.6993 10.6578 11.2754 10.8334 10.8333 10.8334H9.16667C8.72464 10.8334 8.30072 10.6578 7.98816 10.3452C7.6756 10.0327 7.5 9.60877 7.5 9.16674C7.5 8.94572 7.4122 8.73376 7.25592 8.57748C7.09964 8.4212 6.88768 8.3334 6.66667 8.3334C6.44565 8.3334 6.23369 8.4212 6.07741 8.57748C5.92113 8.73376 5.83333 8.94572 5.83333 9.16674C5.83333 9.60877 5.65774 10.0327 5.34518 10.3452C5.03262 10.6578 4.6087 10.8334 4.16667 10.8334H3.33333C2.89131 10.8334 2.46738 10.6578 2.15482 10.3452C1.84226 10.0327 1.66667 9.60877 1.66667 9.16674V8.42424ZM15 18.3334H5C4.33696 18.3334 3.70108 18.07 3.23223 17.6012C2.76339 17.1323 2.5 16.4964 2.5 15.8334V12.3942C2.77217 12.4647 3.05219 12.5003 3.33333 12.5001H4.16667C4.63985 12.5003 5.10763 12.3996 5.53875 12.2046C5.96988 12.0095 6.35442 11.7248 6.66667 11.3692C6.97892 11.7248 7.36346 12.0095 7.79458 12.2046C8.22571 12.3996 8.69349 12.5003 9.16667 12.5001H10.8333C11.3065 12.5003 11.7743 12.3996 12.2054 12.2046C12.6365 12.0095 13.0211 11.7248 13.3333 11.3692C13.6456 11.7248 14.0301 12.0095 14.4612 12.2046C14.8924 12.3996 15.3602 12.5003 15.8333 12.5001H16.6667C16.9478 12.5003 17.2278 12.4647 17.5 12.3942V15.8334C17.5 16.4964 17.2366 17.1323 16.7678 17.6012C16.2989 18.07 15.663 18.3334 15 18.3334Z"
                                                            fill="#007F61"
                                                    />
                                                </g>
                                            </svg>