<svg width="20" height="20" viewBox="0 0 20 20" fill="none" xmlns="http://www.w3.org/2000/svg">
                                                <g clip-path="url(#clip0_707_2463)">
                                                    <path
                                                            d="M13.3333 11.6667C13.3333 12.1267 12.96 12.5 12.5 12.5H11.6667C11.2067 12.5 10.8333 12.1267 10.8333 11.6667C10.8333 11.2067 11.2067 10.8333 11.6667 10.8333H12.5C12.96 10.8333 13.3333 11.2067 13.3333 11.6667ZM15.8333 10.8333H15C14.54 10.8333 14.1667 11.2067 14.1667 11.6667C14.1667 12.1267 14.54 12.5 15 12.5H15.8333C16.2933 12.5 16.6667 12.1267 16.6667 11.6667C16.6667 11.2067 16.2933 10.8333 15.8333 10.8333ZM12.5 14.1667H11.6667C11.2067 14.1667 10.8333 14.54 10.8333 15C10.8333 15.46 11.2067 15.8333 11.6667 15.8333H12.5C12.96 15.8333 13.3333 15.46 13.3333 15C13.3333 14.54 12.96 14.1667 12.5 14.1667ZM15.8333 14.1667H15C14.54 14.1667 14.1667 14.54 14.1667 15C14.1667 15.46 14.54 15.8333 15 15.8333H15.8333C16.2933 15.8333 16.6667 15.46 16.6667 15C16.6667 14.54 16.2933 14.1667 15.8333 14.1667ZM12.5 4.16667H11.6667C11.2067 4.16667 10.8333 4.54 10.8333 5C10.8333 5.46 11.2067 5.83333 11.6667 5.83333H12.5C12.96 5.83333 13.3333 5.46 13.3333 5C13.3333 4.54 12.96 4.16667 12.5 4.16667ZM15.8333 4.16667H15C14.54 4.16667 14.1667 4.54 14.1667 5C14.1667 5.46 14.54 5.83333 15 5.83333H15.8333C16.2933 5.83333 16.6667 5.46 16.6667 5C16.6667 4.54 16.2933 4.16667 15.8333 4.16667ZM12.5 7.5H11.6667C11.2067 7.5 10.8333 7.87333 10.8333 8.33333C10.8333 8.79333 11.2067 9.16667 11.6667 9.16667H12.5C12.96 9.16667 13.3333 8.79333 13.3333 8.33333C13.3333 7.87333 12.96 7.5 12.5 7.5ZM15.8333 7.5H15C14.54 7.5 14.1667 7.87333 14.1667 8.33333C14.1667 8.79333 14.54 9.16667 15 9.16667H15.8333C16.2933 9.16667 16.6667 8.79333 16.6667 8.33333C16.6667 7.87333 16.2933 7.5 15.8333 7.5ZM20 4.16667V15.8333C20 18.1308 18.1308 20 15.8333 20H4.16667C1.86917 20 0 18.1308 0 15.8333V7.715C0 6.58917 0.465 5.495 1.27583 4.71417L2.84917 3.19917C3.82167 2.26167 5.345 2.2625 6.3175 3.19917L7.5 4.33833V4.16667C7.5 1.86917 9.36917 0 11.6667 0H15.8333C18.1308 0 20 1.86917 20 4.16667ZM7.5 7.715C7.5 7.03917 7.22083 6.38333 6.73417 5.91417L5.16083 4.39917C4.99917 4.2425 4.79083 4.165 4.58333 4.165C4.37583 4.165 4.1675 4.2425 4.00583 4.39917L2.4325 5.91417C1.94583 6.3825 1.66667 7.03917 1.66667 7.715V15.8333C1.66667 17.2117 2.78833 18.3333 4.16667 18.3333H7.5V7.715ZM18.3333 4.16667C18.3333 2.78833 17.2117 1.66667 15.8333 1.66667H11.6667C10.2883 1.66667 9.16667 2.78833 9.16667 4.16667V18.3333H15.8333C17.2117 18.3333 18.3333 17.2117 18.3333 15.8333V4.16667ZM5 10.8333H4.16667C3.70667 10.8333 3.33333 11.2067 3.33333 11.6667C3.33333 12.1267 3.70667 12.5 4.16667 12.5H5C5.46 12.5 5.83333 12.1267 5.83333 11.6667C5.83333 11.2067 5.46 10.8333 5 10.8333ZM5 7.5H4.16667C3.70667 7.5 3.33333 7.87333 3.33333 8.33333C3.33333 8.79333 3.70667 9.16667 4.16667 9.16667H5C5.46 9.16667 5.83333 8.79333 5.83333 8.33333C5.83333 7.87333 5.46 7.5 5 7.5ZM5 14.1667H4.16667C3.70667 14.1667 3.33333 14.54 3.33333 15C3.33333 15.46 3.70667 15.8333 4.16667 15.8333H5C5.46 15.8333 5.83333 15.46 5.83333 15C5.83333 14.54 5.46 14.1667 5 14.1667Z"
                                                            fill="#007F61"
                                                    />
                                                </g>
                                            </svg>