<svg width="12" height="12" viewBox="0 0 12 12" fill="none" xmlns="http://www.w3.org/2000/svg">
<g clip-path="url(#clip0_2011_410)">
<g clip-path="url(#clip1_2011_410)">
<path d="M4.63592 2.09292C4.44692 1.89192 4.45592 1.57542 4.65692 1.38592L5.84742 0.26392C6.20192 -0.09158 6.79692 -0.09108 7.16242 0.27442L8.34242 1.38592C8.54342 1.57542 8.55292 1.89192 8.36342 2.09292C8.26492 2.19742 8.13242 2.24992 7.99942 2.24992C7.87642 2.24992 7.75292 2.20492 7.65642 2.11392L6.99942 1.49492V3.99992C6.99942 4.27592 6.77542 4.49992 6.49942 4.49992C6.22342 4.49992 5.99942 4.27592 5.99942 3.99992V1.49442L5.34242 2.11392C5.14192 2.30242 4.82492 2.29442 4.63542 2.09292H4.63592ZM0.842917 3.11392L1.49992 2.49442V3.99992C1.49992 4.27592 1.72392 4.49992 1.99992 4.49992C2.27592 4.49992 2.49992 4.27592 2.49992 3.99992V2.49492L3.15692 3.11392C3.25342 3.20492 3.37642 3.24992 3.49992 3.24992C3.63292 3.24992 3.76542 3.19742 3.86392 3.09292C4.05292 2.89192 4.04392 2.57542 3.84292 2.38592L2.66292 1.27442C2.29692 0.90892 1.70292 0.90842 1.34792 1.26392L0.156917 2.38592C-0.0440834 2.57542 -0.0535834 2.89192 0.135917 3.09292C0.325417 3.29442 0.642417 3.30292 0.842917 3.11392ZM11.6179 6.50742L8.21542 10.3264C7.26742 11.3904 5.90642 12.0004 4.48242 12.0004H1.99992C0.896917 12.0004 -8.3368e-05 11.1034 -8.3368e-05 10.0004V7.50042C-8.3368e-05 6.39742 0.896917 5.50042 1.99992 5.50042H6.42892C6.99842 5.50042 7.49792 5.80492 7.77342 6.25992L9.38142 4.49292C9.65242 4.19542 10.0224 4.02092 10.4244 4.00242C10.8284 3.98142 11.2114 4.12242 11.5084 4.39342C12.1154 4.94692 12.1644 5.89492 11.6179 6.50742ZM10.8349 5.13192C10.7354 5.04092 10.6054 4.99492 10.4709 5.00092C10.3359 5.00742 10.2119 5.06542 10.1209 5.16542L7.90792 7.59742C7.71542 8.13242 7.23842 8.54292 6.65042 8.62692L4.07042 8.99542C3.79792 9.03492 3.54392 8.84492 3.50492 8.57092C3.46592 8.29742 3.65592 8.04392 3.92892 8.00492L6.50942 7.63642C6.78942 7.59692 6.99992 7.35392 6.99992 7.07142C6.99992 6.75642 6.74392 6.49992 6.42892 6.49992H1.99992C1.44842 6.49992 0.999917 6.94842 0.999917 7.49992V9.99992C0.999917 10.5514 1.44842 10.9999 1.99992 10.9999H4.48242C5.62192 10.9999 6.71042 10.5114 7.46892 9.66092L10.8714 5.84192C11.0549 5.63592 11.0384 5.31742 10.8349 5.13142V5.13192Z" fill="#007F61"/>
</g>
</g>
<defs>
<clipPath id="clip0_2011_410">
<rect width="12" height="12" fill="white"/>
</clipPath>
<clipPath id="clip1_2011_410">
<rect width="12" height="12" fill="white"/>
</clipPath>
</defs>
</svg>
