<svg width="1440" height="1024" viewBox="0 0 1440 1024" fill="none" xmlns="http://www.w3.org/2000/svg">
<line x1="77.1465" y1="1024.03" x2="77.1465" y2="-50.9916" stroke="white"/>
<line x1="175.793" y1="1024.03" x2="175.793" y2="-50.9833" stroke="white"/>
<line x1="274.44" y1="1024.04" x2="274.44" y2="-50.975" stroke="white"/>
<line x1="373.086" y1="1024.05" x2="373.086" y2="-50.9666" stroke="white"/>
<line x1="471.733" y1="1024.06" x2="471.733" y2="-50.9581" stroke="white"/>
<line x1="570.379" y1="1024.07" x2="570.379" y2="-50.9498" stroke="white"/>
<line x1="669.026" y1="1024.08" x2="669.026" y2="-50.9415" stroke="white"/>
<line x1="767.672" y1="1024.08" x2="767.672" y2="-50.9331" stroke="white"/>
<line x1="866.319" y1="1024.09" x2="866.319" y2="-50.9247" stroke="white"/>
<line x1="964.966" y1="1024.1" x2="964.966" y2="-50.9164" stroke="white"/>
<line x1="1063.61" y1="1024.11" x2="1063.61" y2="-50.9081" stroke="white"/>
<line x1="1162.26" y1="1024.12" x2="1162.26" y2="-50.8997" stroke="white"/>
<line x1="1260.91" y1="1024.13" x2="1260.91" y2="-50.8912" stroke="white"/>
<line x1="1359.55" y1="1024.13" x2="1359.55" y2="-50.8829" stroke="white"/>
<line x1="1028.98" y1="992.508" x2="-20.9839" y2="992.508" stroke="white"/>
<line x1="1028.99" y1="891.508" x2="-20.9756" y2="891.508" stroke="white"/>
<line x1="1029" y1="790.508" x2="-20.9673" y2="790.508" stroke="white"/>
<line x1="1029.01" y1="689.508" x2="-20.9595" y2="689.508" stroke="white"/>
<line x1="1029.02" y1="588.508" x2="-20.9512" y2="588.508" stroke="white"/>
<line x1="1029.02" y1="487.508" x2="-20.9429" y2="487.508" stroke="white"/>
<line x1="1029.03" y1="386.508" x2="-20.9351" y2="386.508" stroke="white"/>
<line x1="1029.04" y1="285.508" x2="-20.9263" y2="285.508" stroke="white"/>
<line x1="1029.05" y1="184.508" x2="-20.9185" y2="184.508" stroke="white"/>
<line x1="1029.06" y1="83.5083" x2="-20.9106" y2="83.5083" stroke="white"/>
<line x1="2078.93" y1="992.508" x2="1028.97" y2="992.508" stroke="white"/>
<line x1="2078.94" y1="891.508" x2="1028.98" y2="891.508" stroke="white"/>
<line x1="2078.95" y1="790.508" x2="1028.98" y2="790.508" stroke="white"/>
<line x1="2078.96" y1="689.508" x2="1028.99" y2="689.508" stroke="white"/>
<line x1="2078.97" y1="588.508" x2="1029" y2="588.508" stroke="white"/>
<line x1="2078.98" y1="487.508" x2="1029.01" y2="487.508" stroke="white"/>
<line x1="2078.98" y1="386.508" x2="1029.02" y2="386.508" stroke="white"/>
<line x1="2078.99" y1="285.508" x2="1029.02" y2="285.508" stroke="white"/>
<line x1="2079" y1="184.508" x2="1029.03" y2="184.508" stroke="white"/>
<line x1="2079.01" y1="83.5083" x2="1029.04" y2="83.5083" stroke="white"/>
</svg>
